<?xml version="1.0" ?><svg viewBox="0 0 512 512" xmlns="http://www.w3.org/2000/svg"><title/><desc/><g id="Outline"><path fill="#ca9b5f" d="M425.705,86.294a240.087,240.087,0,0,0-295.84-34.513l-.8.469,40.136,69.4A161.277,161.277,0,0,0,121.654,169.2L66.133,137.143A226.244,226.244,0,0,1,125.92,73.619l-9.3-13.019A239.708,239.708,0,0,0,16,256,240,240,0,0,0,425.705,425.706a240,240,0,0,0,0-339.412ZM415.8,264h64.044a222.5,222.5,0,0,1-25.889,97.052l-55.582-32.091A158.855,158.855,0,0,0,415.8,264Zm0-16a158.855,158.855,0,0,0-17.427-64.961l55.582-32.091A222.5,222.5,0,0,1,479.844,248Zm30.129-110.893L390.346,169.2A161.277,161.277,0,0,0,342.8,121.654l32.091-55.583a226.888,226.888,0,0,1,71.036,71.036ZM264,32.156a222.509,222.509,0,0,1,97.052,25.889l-32.09,55.582A158.86,158.86,0,0,0,264,96.2ZM150.981,58.1A223.518,223.518,0,0,1,248,32.143V96.2a158.86,158.86,0,0,0-64.962,17.427ZM256,112c79.4,0,144,64.6,144,144S335.4,400,256,400,112,335.4,112,256,176.6,112,256,112Zm-8,303.8v64.044a222.509,222.509,0,0,1-97.052-25.889l32.09-55.582A158.86,158.86,0,0,0,248,415.8Zm16,0a158.86,158.86,0,0,0,64.962-17.427l32.09,55.582A222.509,222.509,0,0,1,264,479.844ZM96.2,264a158.855,158.855,0,0,0,17.427,64.961L58.045,361.052A222.5,222.5,0,0,1,32.156,264ZM57.632,151.85c.153-.292.318-.577.472-.867l55.523,32.056A158.855,158.855,0,0,0,96.2,248H32.159A224.374,224.374,0,0,1,57.632,151.85Zm8.439,223.043L121.654,342.8A161.277,161.277,0,0,0,169.2,390.346l-32.091,55.583a226.888,226.888,0,0,1-71.036-71.036Zm348.321,39.5a225.851,225.851,0,0,1-39.5,31.537L342.8,390.346A161.277,161.277,0,0,0,390.346,342.8l55.583,32.091A225.777,225.777,0,0,1,414.392,414.392Z"/><path d="M128.214,257.837A8,8,0,0,0,136,264h12.97a28.327,28.327,0,0,1,8.216,1.212,28.658,28.658,0,0,1,7.558,3.566,44.26,44.26,0,0,0,21.665,7.383l-44.341,18.368,6.123,14.782,48.271-20-.559,1.12a11.541,11.541,0,0,1-6.7,5.8A27.675,27.675,0,0,0,171.78,313.66l-8.219,24.66a8,8,0,0,0,13.247,8.187l9.17-9.17a28.387,28.387,0,0,1,6.695-4.968,28.061,28.061,0,0,1,7.829-2.805,44.288,44.288,0,0,0,20.571-10.133l-18.384,44.378,14.782,6.123,19.991-48.259.389,1.167a11.634,11.634,0,0,1-.624,8.827,27.663,27.663,0,0,0,0,24.66l11.62,23.25A8,8,0,0,0,264,376V363.03a28.344,28.344,0,0,1,1.212-8.217,28.694,28.694,0,0,1,3.565-7.557,44.228,44.228,0,0,0,7.377-21.683l18.375,44.359,14.782-6.123-20-48.272,1.118.558a11.541,11.541,0,0,1,5.8,6.7,27.672,27.672,0,0,0,17.429,17.427l24.659,8.22a8,8,0,0,0,8.188-13.246l-9.17-9.17a28.374,28.374,0,0,1-4.969-6.7,28.077,28.077,0,0,1-2.805-7.827,44.286,44.286,0,0,0-10.131-20.57l44.377,18.383,6.123-14.782-48.259-19.991,1.165-.388a11.768,11.768,0,0,1,8.829.623,27.664,27.664,0,0,0,24.659,0l23.25-11.62A8,8,0,0,0,376,248H363.03a28.327,28.327,0,0,1-8.216-1.212,28.658,28.658,0,0,1-7.558-3.566,44.262,44.262,0,0,0-21.678-7.378l44.354-18.373-6.123-14.782-48.271,20,.559-1.12a11.541,11.541,0,0,1,6.7-5.8A27.675,27.675,0,0,0,340.22,198.34l8.219-24.66a8,8,0,0,0-13.247-8.187l-9.17,9.17a28.387,28.387,0,0,1-6.695,4.968,28.061,28.061,0,0,1-7.829,2.805,44.288,44.288,0,0,0-20.571,10.133l18.384-44.378-14.782-6.123-19.991,48.259-.389-1.167a11.634,11.634,0,0,1,.624-8.827,27.663,27.663,0,0,0,0-24.66l-11.62-23.25A8,8,0,0,0,248,136v12.97a28.344,28.344,0,0,1-1.212,8.217,28.694,28.694,0,0,1-3.565,7.557,44.228,44.228,0,0,0-7.377,21.683l-18.375-44.359-14.782,6.123,20,48.272-1.118-.558a11.541,11.541,0,0,1-5.8-6.7,27.672,27.672,0,0,0-17.429-17.427l-24.659-8.22a8,8,0,0,0-8.188,13.246l9.17,9.17a28.374,28.374,0,0,1,4.969,6.7,28.077,28.077,0,0,1,2.805,7.827,44.286,44.286,0,0,0,10.131,20.57l-44.377-18.383-6.123,14.782,48.259,19.991-1.165.388a11.768,11.768,0,0,1-8.829-.623,27.661,27.661,0,0,0-24.659,0l-23.25,11.62A8,8,0,0,0,128.214,257.837ZM304,256a48,48,0,1,1-48-48A48.054,48.054,0,0,1,304,256ZM197.374,313.873a44.006,44.006,0,0,0-9.675,3.114,11.624,11.624,0,0,1,6.571-5.577,27.382,27.382,0,0,0,14.86-11.892q2.2,2.372,4.641,4.513A28.246,28.246,0,0,1,197.374,313.873Zm58.09,24.509a44.5,44.5,0,0,0-4.631,9.043,11.6,11.6,0,0,1,.7-8.6,27.629,27.629,0,0,0,2.116-18.888c.781.029,1.561.06,2.349.06,1.375,0,2.735-.059,4.088-.144A28.653,28.653,0,0,1,255.464,338.382Zm55.945-20.653a27.373,27.373,0,0,0-11.892-14.859,64.607,64.607,0,0,0,4.514-4.641,28.246,28.246,0,0,1,9.842,16.4,44,44,0,0,0,3.113,9.675A11.626,11.626,0,0,1,311.409,317.729Zm36.017-56.562a11.608,11.608,0,0,1-8.6-.7,27.976,27.976,0,0,0-18.888-2.106c.029-.784.06-1.568.06-2.359,0-1.375-.059-2.735-.145-4.088a28.653,28.653,0,0,1,18.528,4.624A44.472,44.472,0,0,0,347.426,261.167Zm-32.8-63.04a44.006,44.006,0,0,0,9.675-3.114,11.624,11.624,0,0,1-6.571,5.577,27.382,27.382,0,0,0-14.86,11.892q-2.205-2.371-4.641-4.513A28.246,28.246,0,0,1,314.626,198.127Zm-58.09-24.509a44.5,44.5,0,0,0,4.631-9.043,11.6,11.6,0,0,1-.7,8.6,27.629,27.629,0,0,0-2.116,18.888c-.781-.029-1.561-.06-2.349-.06-1.375,0-2.735.059-4.088.144A28.653,28.653,0,0,1,256.536,173.618Zm-55.945,20.653a27.373,27.373,0,0,0,11.892,14.859,64.607,64.607,0,0,0-4.514,4.641,28.246,28.246,0,0,1-9.842-16.4,44,44,0,0,0-3.113-9.675A11.626,11.626,0,0,1,200.591,194.271Zm-27.419,57.264a27.981,27.981,0,0,0,18.888,2.1c-.029.785-.06,1.569-.06,2.36,0,1.374.059,2.735.145,4.088a28.659,28.659,0,0,1-18.528-4.624,44.472,44.472,0,0,0-9.043-4.631A11.611,11.611,0,0,1,173.172,251.535Z"/><rect height="16" width="32" x="240" y="272"/><path d="M240,264h16V240a8,8,0,0,0-2.343-5.657A23.669,23.669,0,0,0,226.3,229.9l-5.881,2.941,7.156,14.31,5.881-2.94a7.685,7.685,0,0,1,6.541-.163Z"/><rect height="16" width="16" x="272" y="232"/><path d="M320.439,63.783a8,8,0,0,0-5.242-5.695l-15.031-5.011A8,8,0,0,0,289.679,61.5L291.605,80a8,8,0,0,0,13.7,4.746l13.1-13.49A8,8,0,0,0,320.439,63.783Z"/><circle cx="389.667" cy="121" r="16"/><rect height="32" rx="8" ry="8" width="32" x="424" y="192"/><ellipse cx="442.5" cy="305.5" rx="18.195" ry="16"/><ellipse cx="392.333" cy="391" rx="16" ry="18.195"/><path d="M302.334,423.332A18.354,18.354,0,0,0,284,441.666v11.666a8,8,0,0,0,8,8h20.666a8,8,0,0,0,8-8V441.666A18.354,18.354,0,0,0,302.334,423.332Zm2.333,22H300v-3.666a2.333,2.333,0,1,1,4.666,0Z"/><path d="M186.835,457.331h40v-16h-5.288a15.667,15.667,0,1,0-29.425,0h-5.287Z"/><path d="M118.667,371.333a18.355,18.355,0,0,0-18.334,18.334v11.666a8,8,0,0,0,8,8H129a8,8,0,0,0,8-8V389.667A18.355,18.355,0,0,0,118.667,371.333Zm2.333,22h-4.667v-3.666a2.334,2.334,0,1,1,4.667,0Z"/><path d="M58,225.667H78.667a8,8,0,0,0,8-8V206A18.334,18.334,0,0,0,50,206v11.667A8,8,0,0,0,58,225.667ZM66,206a2.334,2.334,0,0,1,4.667,0v3.667H66Z"/><path d="M51.225,313.59l12.884,9.487L78.155,304H88V288a8,8,0,0,0-8-8H64v16h.176Z"/><rect height="24" rx="8" ry="8" width="40" x="99.333" y="108"/><path d="M220.234,80.206a16.9,16.9,0,0,1,.12-14.685l.166-.339a8,8,0,0,0-7.187-11.516H197.44a8,8,0,0,0-7.13,11.627,17.071,17.071,0,0,1,.128,15.148l-.186.38a8,8,0,0,0,7.188,11.512h15.893a8,8,0,0,0,7.243-11.4Z"/></g></svg>
