<?xml version="1.0" encoding="UTF-8" standalone="no"?>
<svg
   xmlns:dc="http://purl.org/dc/elements/1.1/"
   xmlns:cc="http://creativecommons.org/ns#"
   xmlns:rdf="http://www.w3.org/1999/02/22-rdf-syntax-ns#"
   xmlns:svg="http://www.w3.org/2000/svg"
   xmlns="http://www.w3.org/2000/svg"
   xmlns:sodipodi="http://sodipodi.sourceforge.net/DTD/sodipodi-0.dtd"
   xmlns:inkscape="http://www.inkscape.org/namespaces/inkscape"
   inkscape:version="1.0 (4035a4f, 2020-05-01)"
   sodipodi:docname="5619105 - element fortune mystical sun.svg"
   id="svg39"
   version="1.1"
   viewBox="0 0 512 512">
  <metadata
     id="metadata45">
    <rdf:RDF>
      <cc:Work
         rdf:about="">
        <dc:format>image/svg+xml</dc:format>
        <dc:type
           rdf:resource="http://purl.org/dc/dcmitype/StillImage" />
      </cc:Work>
    </rdf:RDF>
  </metadata>
  <defs
     id="defs43" />
  <sodipodi:namedview
     inkscape:current-layer="Outline"
     inkscape:window-maximized="0"
     inkscape:window-y="23"
     inkscape:window-x="0"
     inkscape:cy="264.99824"
     inkscape:cx="252.4007"
     inkscape:zoom="1.1113281"
     showgrid="false"
     id="namedview41"
     inkscape:window-height="631"
     inkscape:window-width="1280"
     inkscape:pageshadow="2"
     inkscape:pageopacity="0"
     guidetolerance="10"
     gridtolerance="10"
     objecttolerance="10"
     borderopacity="1"
     bordercolor="#666666"
     pagecolor="#ffffff" />
  <title
     id="title10" />
  <desc
     id="desc12" />
  <g
     id="Outline">
    <path
       style="stroke:none;stroke-opacity:1;fill:#ca9b5f;fill-opacity:1"
       id="path14"
       d="M495.657,245.682A8,8,0,0,0,488,240c-14.011,0-28.476-1.078-40.761-8.482C433.2,223.06,421.142,216,404,216h-5.692A40.077,40.077,0,0,1,405,214.009a55.911,55.911,0,0,0,37.865-27.821l22.551-40.82a8,8,0,0,0-12.558-9.624c-17.119,16.517-34.121,33.086-59.547,34.763-2.8.183-5.624.51-8.39.968l2.618,15.785c2.247-.373,4.541-.638,6.821-.787a85.021,85.021,0,0,0,28.869-7.1q3.631-1.613,7.078-3.539l-1.45,2.624A39.943,39.943,0,0,1,401.8,198.331a55.288,55.288,0,0,0-19.239,7.879,135.6,135.6,0,0,0-10.16-20.477l4.263-9.946a35.066,35.066,0,0,1,14.193-16.259,51.194,51.194,0,0,0,23.807-33.781l7.57-37.89a8,8,0,0,0-13.5-7.22l-8.477,8.486a52.35,52.35,0,0,1-29.416,14.708,68.461,68.461,0,0,0-38.476,19.233l-4.008,4.012a39.871,39.871,0,0,1,3.321-6.125,55.979,55.979,0,0,0,7.1-46.449l-12.929-44.81a8,8,0,0,0-15.685,2.078c-.415,23.793-.691,47.5-17.524,66.682a84.81,84.81,0,0,0-9.086,12.492c.7-1.175-1.532-8.608-1.48-10.543.489-18.093,5.1-32.082-5.986-48.7l-21.43-32.139A8,8,0,0,0,240,24V36a52.306,52.306,0,0,1-10.4,31.2A68.437,68.437,0,0,0,216,108v5.692a40.106,40.106,0,0,1-1.991-6.69,55.926,55.926,0,0,0-27.821-37.865l-40.82-22.55a8,8,0,0,0-9.624,12.558C152.3,76.3,168.823,93.192,170.507,118.691a85.037,85.037,0,0,0,2.406,15.241,34.733,34.733,0,0,1-6.375-4.411c-6.582-5.742-10.019-14.064-16.516-19.943a51.333,51.333,0,0,0-24.274-12.243L87.857,89.766a8,8,0,0,0-7.22,13.5l8.486,8.476c18.721,18.7,14.453,48.383,33.924,67.874,0,0,10.775-10.675,11.454-11.346-6.693-5.4-10.449-13.645-12.861-21.9s-3.724-16.835-6.737-24.89c5.121,2.4,8.823,7.089,11.507,12.066s4.533,10.364,7.119,15.393a58.852,58.852,0,0,0,17.39,20.412l-11.093,15.757a3.8,3.8,0,0,1-1.575,1.5,3.7,3.7,0,0,1-2.248-.094c-9.9-2.584-17.626-8.8-27.054-12.213A56.149,56.149,0,0,0,74.5,173.224l-44.81,12.929a8,8,0,0,0,2.079,15.686c24.047.42,47.618.8,66.681,17.522a84.744,84.744,0,0,0,12.492,9.087,34.9,34.9,0,0,1-10,1.462c-18.51,0-32.19-5.357-49.238,6l-32.14,21.43A8,8,0,0,0,24,272H36c26.446,0,44.442,24,72,24h5.692A40.077,40.077,0,0,1,107,297.991a55.911,55.911,0,0,0-37.865,27.821l-22.551,40.82a8,8,0,0,0,12.559,9.624l16.089-15.529A69.1,69.1,0,0,1,118.7,341.492l-1.054-15.965a85.021,85.021,0,0,0-28.869,7.1q-3.632,1.613-7.078,3.539l1.45-2.624A39.943,39.943,0,0,1,110.2,313.669a55.288,55.288,0,0,0,19.239-7.879A135.532,135.532,0,0,0,139.6,326.269l-4.265,9.944a35.066,35.066,0,0,1-14.193,16.259,51.194,51.194,0,0,0-23.807,33.781l-7.57,37.89a8,8,0,0,0,13.5,7.22l8.477-8.486a52.319,52.319,0,0,1,29.416-14.708,68.461,68.461,0,0,0,38.476-19.233l4.008-4.012a39.917,39.917,0,0,1-3.321,6.125,55.979,55.979,0,0,0-7.1,46.449l12.929,44.81a8,8,0,0,0,7.68,5.783,8.232,8.232,0,0,0,1.058-.07,8,8,0,0,0,6.947-7.792l.391-22.349a69.161,69.161,0,0,1,17.133-44.332,84.81,84.81,0,0,0,9.086-12.492,34.96,34.96,0,0,1,.41,18.516,51.229,51.229,0,0,0,7.056,40.727l21.43,32.139A8,8,0,0,0,272,488c0-13.648.782-27.829,8.25-40.1,7.445-12.234,14.068-22.808,15.452-37.54l-15.93-1.5A52,52,0,0,1,269.6,435.2a67.763,67.763,0,0,0-9.031,16.314,39.312,39.312,0,0,1,3.336-25.436,55.5,55.5,0,0,0,4.911-34.686,135.234,135.234,0,0,0,21.039-3.658l.935,1.245a39.914,39.914,0,0,1,7.2,16.019,55.926,55.926,0,0,0,27.821,37.865l40.82,22.55a8,8,0,0,0,9.628-12.555c-16.411-17.025-33.127-34.71-34.767-59.549a84.948,84.948,0,0,0-2.406-15.241,34.642,34.642,0,0,1,6.374,4.411,35.019,35.019,0,0,1,7.01,8.379,51.193,51.193,0,0,0,33.781,23.807l37.891,7.569a7.907,7.907,0,0,0,1.569.157,8,8,0,0,0,5.651-13.662l-8.486-8.476c-7.983-7.983-12.94-18.7-15.224-29.666-.634-3.045-9.282-32.786-12.179-30.646l-12.854,9.53a52.212,52.212,0,0,1,9.711,23.632,68.087,68.087,0,0,0,5.148,17.914,39.139,39.139,0,0,1-15.629-20.344,55.5,55.5,0,0,0-21.1-28.034A136.711,136.711,0,0,0,373.032,325.2l1.6.229c17.115,2.44,28.988,15.548,47.313,15.547a56.089,56.089,0,0,0,15.55-2.2l44.81-12.929a8,8,0,0,0-2.078-15.686c-23.524-.413-47.737-.9-66.682-17.522a84.744,84.744,0,0,0-12.492-9.087,34.96,34.96,0,0,1,18.516-.41,51.223,51.223,0,0,0,40.726-7.056l32.14-21.43A8,8,0,0,0,495.657,245.682Zm-113.035-99.87a51.062,51.062,0,0,0-20.665,23.675l-.38.888q-3.394-4.176-7.1-8.078l1.006-1.508a39.433,39.433,0,0,1,20.245-15.46,55.03,55.03,0,0,0,17.924-10.009A35.129,35.129,0,0,1,382.622,145.812Zm-38.945-11.435A52.365,52.365,0,0,1,373.1,119.669a68.092,68.092,0,0,0,17.914-5.148,39.131,39.131,0,0,1-20.345,15.628,55.507,55.507,0,0,0-28.035,21.1q-4.345-3.6-8.99-6.835Zm-39.013-25.37a84.651,84.651,0,0,0,15.387-25.422q1.439-3.718,2.519-7.536l.833,2.889a39.994,39.994,0,0,1-5.073,33.185,55.442,55.442,0,0,0-8.049,19.192,135.022,135.022,0,0,0-16.312-5.914A68.527,68.527,0,0,1,304.664,109.007ZM262.4,93.078a55.482,55.482,0,0,0,5.582-19.8,35.133,35.133,0,0,1-.368,15.274,51.011,51.011,0,0,0,2.124,31.352l.329.823q-5.3-.547-10.7-.682l-.344-1.723A39.425,39.425,0,0,1,262.4,93.078ZM232,108a52.339,52.339,0,0,1,10.4-31.2,67.763,67.763,0,0,0,9.031-16.314A39.312,39.312,0,0,1,248.1,85.922a55.5,55.5,0,0,0-4.911,34.686q-5.661.532-11.184,1.513ZM178.456,83.145A39.955,39.955,0,0,1,198.332,110.2a55.237,55.237,0,0,0,7.878,19.24,135.368,135.368,0,0,0-15.7,7.4,68.728,68.728,0,0,1-4.041-19.195,85.038,85.038,0,0,0-7.1-28.87q-1.613-3.631-3.539-7.077ZM145.33,136.27a55.013,55.013,0,0,0-10.011-17.925,35.139,35.139,0,0,1,10.493,11.034,51.051,51.051,0,0,0,23.676,20.664l.887.38q-4.176,3.393-8.078,7.1l-1.507-1.006A39.429,39.429,0,0,1,145.33,136.27ZM88.549,244.381a51.022,51.022,0,0,0,31.353-2.123l.823-.329q-.547,5.293-.682,10.7l-1.721.345A39.431,39.431,0,0,1,93.077,249.6a55.483,55.483,0,0,0-19.8-5.582A35.124,35.124,0,0,1,88.549,244.381ZM108,280a52.34,52.34,0,0,1-31.2-10.4,67.707,67.707,0,0,0-16.313-9.032A39.309,39.309,0,0,1,85.922,263.9a55.506,55.506,0,0,0,34.686,4.911q.532,5.661,1.513,11.184Zm17.4-61.969a68.552,68.552,0,0,1-16.395-10.695,84.641,84.641,0,0,0-25.421-15.388q-3.718-1.437-7.536-2.517l2.888-.834a40.006,40.006,0,0,1,33.186,5.073,55.462,55.462,0,0,0,19.192,8.049A135.022,135.022,0,0,0,125.4,218.031Zm3.977,148.157a51.062,51.062,0,0,0,20.665-23.675l.38-.888q3.393,4.176,7.1,8.078l-1.006,1.508a39.433,39.433,0,0,1-20.245,15.46,54.993,54.993,0,0,0-17.924,10.009A35.129,35.129,0,0,1,129.378,366.188Zm38.945,11.435A52.365,52.365,0,0,1,138.9,392.331a68.092,68.092,0,0,0-17.914,5.148,39.131,39.131,0,0,1,20.345-15.628,55.507,55.507,0,0,0,28.035-21.1q4.345,3.6,8.99,6.835Zm39.013,25.37a84.651,84.651,0,0,0-15.387,25.422q-1.439,3.719-2.519,7.536l-.833-2.889a39.994,39.994,0,0,1,5.073-33.185,55.442,55.442,0,0,0,8.049-19.192,135.2,135.2,0,0,0,16.312,5.915A68.541,68.541,0,0,1,207.336,402.993ZM249.6,418.922a55.482,55.482,0,0,0-5.582,19.8,35.133,35.133,0,0,1,.368-15.274,51.008,51.008,0,0,0-2.124-31.351l-.329-.824q5.3.548,10.7.682l.344,1.723A39.425,39.425,0,0,1,249.6,418.922Zm83.949,9.933A39.955,39.955,0,0,1,313.668,401.8a55.237,55.237,0,0,0-7.878-19.24,135.368,135.368,0,0,0,15.7-7.4,68.72,68.72,0,0,1,4.041,19.2,85.038,85.038,0,0,0,7.1,28.87q1.613,3.632,3.539,7.077ZM366.67,375.73a55,55,0,0,0,10.011,17.924,35.125,35.125,0,0,1-10.493-11.033,51.051,51.051,0,0,0-23.676-20.664l-.887-.38q4.176-3.393,8.078-7.1l1.507,1.006A39.429,39.429,0,0,1,366.67,375.73ZM256,376A120,120,0,1,1,376,256,120.136,120.136,0,0,1,256,376Zm146.994-71.336a84.641,84.641,0,0,0,25.421,15.388q3.719,1.437,7.536,2.517l-2.889.834a40,40,0,0,1-33.185-5.073,55.462,55.462,0,0,0-19.192-8.049,135.022,135.022,0,0,0,5.914-16.312A68.552,68.552,0,0,1,402.994,304.664Zm20.457-37.045a51.022,51.022,0,0,0-31.353,2.123l-.823.329q.548-5.294.682-10.7l1.721-.345a39.43,39.43,0,0,1,25.245,3.381,55.472,55.472,0,0,0,19.8,5.582A35.134,35.134,0,0,1,423.451,267.619ZM443.62,252.23a39.435,39.435,0,0,1-17.542-4.135,55.507,55.507,0,0,0-34.686-4.912q-.533-5.659-1.513-11.183H404a52.34,52.34,0,0,1,31.2,10.4,67.688,67.688,0,0,0,16.313,9.032A39.324,39.324,0,0,1,443.62,252.23Z" />
    <path
       style="fill:#ca9b5f;fill-opacity:1"
       id="path16"
       d="M233.889,288H256V272H233.889a1.889,1.889,0,0,1-.845-3.578A26.907,26.907,0,0,0,248,244.223V223.852C248,202.481,229.5,184,208,184c-28.615,0-38.738,19.589-39.155,20.422l14.31,7.156-.053.1c.257-.478,6.51-11.683,24.9-11.683,12,0,24,11.061,24,23.852v20.371a10.992,10.992,0,0,1-6.113,9.888,17.806,17.806,0,0,0-9.038,21.381,1.987,1.987,0,0,1-.117,1.165c-.069.148-7.158,14.864-28.133,25.935l7.469,14.15c19.192-10.13,28.993-22.989,32.991-29.423A17.789,17.789,0,0,0,233.889,288Z" />
    <path
       style="fill:#ca9b5f;fill-opacity:1"
       id="path18"
       d="M304,184c-24.922,0-38.046,18.673-38.592,19.468l13.184,9.064C278.679,212.407,287.665,200,304,200a32.546,32.546,0,0,1,25.408,12.532l13.184-9.064C342.046,202.673,328.922,184,304,184Z" />
    <path
       style="fill:#ca9b5f;fill-opacity:1"
       id="path20"
       d="M256,336c-20.706,0-30.738,19.589-31.155,20.422l14.31,7.156C239.213,363.462,245.245,352,256,352c10.738,0,16.808,11.507,16.845,11.578l14.31-7.156C286.738,355.589,276.706,336,256,336Z" />
    <path
       style="fill:#ca9b5f;fill-opacity:1"
       id="path22"
       d="M222.146,240.123l-12.292-10.242c-.042.051-4.68,5.121-13.854,5.121-9.148,0-13.752-5.013-13.944-5.227l.09.106-12.292,10.242C170.782,241.237,179.4,251,196,251S221.218,241.237,222.146,240.123Z" />
    <path
       style="fill:#ca9b5f;fill-opacity:1"
       id="path24"
       d="M308,235c-9.148,0-13.752-5.013-13.944-5.227l.09.106-12.292,10.242C282.782,241.237,291.4,251,308,251s25.218-9.765,26.146-10.879l-12.292-10.242C321.812,229.932,317.174,235,308,235Z" />
    <path
       style="fill:#ca9b5f;fill-opacity:1"
       id="path26"
       d="M287.513,269.251l-15.034,5.477c.5,1.386,12.691,34.094,44.991,44.862l5.06-15.18C297.7,296.132,287.612,269.519,287.513,269.251Z" />
    <rect
       style="fill:#ca9b5f;fill-opacity:1"
       id="rect28"
       y="304"
       x="232"
       width="48"
       height="16" />
    <rect
       style="fill:#ca9b5f;fill-opacity:1"
       id="rect30"
       y="152"
       x="272"
       width="16"
       height="16" />
    <rect
       style="fill:#ca9b5f;fill-opacity:1"
       id="rect32"
       y="256"
       x="344"
       width="16"
       height="16" />
    <rect
       style="fill:#ca9b5f;fill-opacity:1"
       id="rect34"
       y="264"
       x="152"
       width="16"
       height="16" />
    <rect
       style="fill:#ca9b5f;fill-opacity:1"
       id="rect36"
       y="288"
       x="336"
       width="16"
       height="16" />
  </g>
</svg>
