<?xml version="1.0" ?>
<svg viewBox="0 0 512 512" 
    xmlns="http://www.w3.org/2000/svg">
    <title/>
    <desc/>
    <g id="Outline">
        <path d="M400,372.686V350.071c1.493.146,3,.229,4.52.229,15.663,0,28.978-7.806,34.75-20.371a8,8,0,0,0-2.257-9.574l-42.654-34.291a56.216,56.216,0,0,0-38.213-30.223l-32.654-7.26-68.918-53.6-22.523-54.06,18.483-9.242A53.013,53.013,0,0,0,280,84a68,68,0,0,0-88-64.994,67.115,67.115,0,0,0-15.4-2.843c-1.447-.11-2.953-.163-4.6-.163a67.476,67.476,0,0,0-67.611,64H136V64H123.952a50.674,50.674,0,0,1,11.272-16.771c.8-.8,1.631-1.56,2.474-2.3l7.112,14.579,4.7-2.291A67.619,67.619,0,0,0,144,84V96H80a8,8,0,0,0-8,8v8a32.036,32.036,0,0,0,32,32v8a7.994,7.994,0,0,0,.845,3.578l24,48A8,8,0,0,0,136,208h24v40a32.012,32.012,0,0,0-27.695,16H96a8,8,0,0,0-8,8v24a8,8,0,0,0,2.343,5.657L96,307.314v24.871l-8.909-3.563A23.894,23.894,0,0,1,72,306.33V256a16.019,16.019,0,0,1,16-16h56V224H88a32.036,32.036,0,0,0-32,32v50.33a39.818,39.818,0,0,0,25.149,37.148l19.88,7.95A8,8,0,0,0,112,344V304a8,8,0,0,0-2.343-5.657L104,292.686V280h24v50.335a39.809,39.809,0,0,0,25.145,37.139l19.884,7.954A8,8,0,0,0,184,368V328a8,8,0,0,0-2.343-5.657L176,316.687V304h14.379L202.3,321.87a39.893,39.893,0,0,0,24.287,16.785l85.7,19.775A72.606,72.606,0,0,0,336,405.968v15.738L299.566,480h-25.7a17.807,17.807,0,0,1,8-8l1.691-.84a8,8,0,0,0,3.594-3.586l24-48a8,8,0,0,0-1.5-9.235,73.915,73.915,0,0,1-21.5-47.385l-15.965,1.06A89.9,89.9,0,0,0,294.355,417.4l-20.321,40.642A33.71,33.71,0,0,0,256,488a8,8,0,0,0,8,8h40a8,8,0,0,0,6.784-3.76l40-64A7.994,7.994,0,0,0,352,424v-7.063c.068.035.134.074.2.108L372.7,427.292,354.34,457.884A33.714,33.714,0,0,0,336,488a8,8,0,0,0,8,8h40a8,8,0,0,0,6.656-3.562l48-72a8,8,0,0,0-1-10.095Zm4.52-38.386a29.84,29.84,0,0,1-4.52-.363V311.128L421.24,328.2C416.739,332.614,410.1,334.3,404.52,334.3ZM222.9,120.318A31.93,31.93,0,0,0,224,112v-8a8,8,0,0,0-8-8h-8V84a12,12,0,0,1,24,0,77.114,77.114,0,0,1-8.1,34.311ZM151.286,36.289A51.673,51.673,0,0,1,168,32.166v.049a68.569,68.569,0,0,0-12.135,13.461ZM160,84c0-1.347.068-2.678.169-4H176V64h-12a52.238,52.238,0,0,1,13.9-19.211L184.757,59.4l14.486-6.8-7.7-16.4A51.617,51.617,0,0,1,208,32.169V48h16V33.413a51.781,51.781,0,0,1,18.654,8.619l-8.311,8.311,11.314,11.314,8.311-8.311A51.712,51.712,0,0,1,264,84a37.1,37.1,0,0,1-20.622,33.367l-1.984.992A93.263,93.263,0,0,0,248,84a28,28,0,0,0-56,0V96H160ZM88,112h16v16A16.019,16.019,0,0,1,88,112ZM379.719,480h-25.85a17.807,17.807,0,0,1,8-8l1.69-.84a8,8,0,0,0,3.3-3.048l24-40a8,8,0,0,0-3.282-11.271l-28.22-14.11a80.76,80.76,0,0,1-22.884-20.914C330.274,373.3,328,362.547,328,352V312H312v29.944l-81.816-18.878a23.953,23.953,0,0,1-14.578-10.074l-6-8.992H240a8,8,0,0,0,6.4-3.2l24-32-12.8-9.6L236,288H168a8,8,0,0,0-8,8v24a8,8,0,0,0,2.343,5.657L168,331.313v24.871l-8.913-3.565A23.886,23.886,0,0,1,144,330.335V280a16.019,16.019,0,0,1,16-16h56V248H176V152H160v40H140.944L120,150.111V112h88a16.019,16.019,0,0,1-16,16H176v16h16a31.852,31.852,0,0,0,20.782-7.7c.045.1.1.206.143.313l27.69,66.46a8.007,8.007,0,0,0,2.473,3.238l72,56a8,8,0,0,0,3.176,1.494l34.41,7.65A40.168,40.168,0,0,1,380.613,294.4,39.588,39.588,0,0,1,384,310.5V376a8,8,0,0,0,2.343,5.657l35.363,35.363Z"/>
        <rect class="highlighting" height="16" width="16" x="136" y="136"/>
    </g>
</svg>