<?xml version="1.0" standalone="no"?>
<!DOCTYPE svg PUBLIC "-//W3C//DTD SVG 20010904//EN"
 "http://www.w3.org/TR/2001/REC-SVG-20010904/DTD/svg10.dtd">
<svg version="1.0" xmlns="http://www.w3.org/2000/svg"
 width="100%" height="100%" viewBox="0 0 1280.000000 640.000000"
 preserveAspectRatio="xMidYMid meet">
<metadata>
Created by potrace 1.15, written by Peter Selinger 2001-2017
</metadata>
<g transform="translate(0.000000,640.000000) scale(0.100000,-0.100000)"
  stroke="none">
<path d="M3120 4058 c-114 -53 -658 -287 -845 -363 -833 -339 -1465 -485
-2102 -485 -119 0 -144 -3 -158 -17 -39 -39 15 -145 83 -162 20 -5 195 -26
387 -46 910 -94 1325 -159 1695 -266 324 -94 561 -198 775 -341 l106 -71 27
20 c14 10 38 35 53 54 54 67 56 63 -122 294 -88 116 -165 218 -170 227 -21 39
-165 34 2131 68 371 6 970 15 1330 20 360 5 981 14 1380 20 399 6 961 15 1250
19 l525 9 75 -47 c41 -26 217 -141 391 -255 l317 -207 628 -9 c346 -6 899 -11
1229 -12 570 -3 602 -2 638 16 73 36 74 94 2 174 -54 59 -85 76 -450 242 -159
72 -292 133 -293 135 -2 2 6 31 18 64 31 83 25 187 -14 256 -14 27 -25 49 -24
50 2 1 155 104 340 228 208 141 339 235 343 248 18 57 -38 149 -100 165 -25 6
-2461 -159 -2521 -171 -11 -3 -148 -128 -305 -278 l-283 -274 -731 -7 c-841
-8 -1676 -20 -2770 -41 -1255 -24 -1389 -26 -2340 -35 -639 -6 -913 -6 -922 2
-19 16 -16 58 8 97 17 29 365 523 466 664 19 26 31 47 26 46 -4 0 -37 -14 -73
-31z m8906 -154 c-9 -8 -16 -22 -16 -29 0 -8 -16 -26 -35 -41 -41 -31 -47 -64
-11 -64 20 0 23 -4 19 -22 -9 -35 -24 -49 -73 -70 -25 -11 -56 -30 -70 -43
-14 -13 -49 -30 -79 -39 -30 -9 -65 -25 -77 -37 -34 -32 -204 -70 -284 -63
-60 5 -68 4 -110 -24 -69 -45 -80 -46 -122 -7 -40 37 -45 56 -28 101 17 44 -1
50 -62 22 -277 -133 -240 -121 -380 -127 -112 -5 -129 -9 -150 -28 -13 -12
-39 -28 -58 -36 -46 -19 -166 -32 -174 -19 -8 14 176 183 266 244 103 70 177
102 304 131 61 14 156 45 210 68 95 40 100 41 139 29 22 -8 75 -14 118 -13 42
0 77 -2 77 -6 0 -3 -28 -22 -61 -41 -96 -55 -101 -88 -16 -97 32 -4 87 5 189
31 192 48 250 69 306 110 73 53 218 111 178 70z m-1294 -79 c-5 -30 -30 -49
-96 -75 -41 -16 -66 -34 -85 -60 -41 -57 -125 -127 -199 -165 -37 -19 -74 -40
-83 -47 -14 -9 -23 -7 -49 16 -30 25 -34 26 -56 11 -30 -19 -53 -19 -93 1 -32
16 -34 16 -169 -44 -75 -33 -155 -65 -177 -71 -53 -14 -108 -14 -123 1 -23 23
-12 46 45 95 31 26 92 83 134 125 43 42 100 88 127 102 27 14 63 37 81 52 40
33 103 42 154 21 45 -19 50 -51 12 -69 -14 -6 -25 -15 -25 -19 0 -16 27 -15
63 3 21 10 100 41 176 68 77 28 154 57 172 65 23 10 61 14 114 12 74 -2 80 -4
77 -22z m198 -540 c29 -19 76 -42 106 -51 30 -8 54 -17 54 -20 0 -2 -235 -4
-522 -3 -314 1 -506 5 -480 10 49 9 98 41 107 69 7 22 34 23 476 28 l207 2 52
-35z m778 -7 c-2 -27 -9 -46 -18 -50 -8 -4 -63 -7 -122 -7 l-108 -1 0 34 c0
66 0 66 131 66 l119 0 -2 -42z m-55 -220 c15 -11 44 -24 65 -30 20 -6 51 -22
69 -37 17 -14 43 -34 56 -43 18 -12 24 -24 20 -38 -8 -29 -43 -25 -92 11 -45
32 -86 34 -112 3 -9 -11 -15 -12 -25 -3 -8 6 -14 17 -14 24 0 7 -20 29 -46 50
-49 40 -53 62 -16 81 28 14 57 8 95 -18z m-475 -10 l173 -3 42 -45 c24 -25 60
-58 80 -73 44 -33 48 -67 13 -102 -53 -53 -141 -40 -305 46 -157 83 -196 55
-91 -64 23 -26 40 -51 36 -54 -3 -3 -11 -1 -18 4 -24 20 -53 20 -102 1 -32
-13 -60 -17 -80 -12 -70 15 -285 140 -316 185 -12 16 -40 39 -63 51 l-42 21
45 21 c61 27 107 31 295 29 88 -2 238 -4 333 -5z m-1213 -39 c11 -16 37 -40
58 -51 28 -17 40 -31 48 -62 6 -22 19 -51 30 -64 23 -30 24 -40 2 -64 -34 -37
-95 -15 -251 94 -50 35 -111 75 -136 90 -54 32 -61 61 -18 76 15 6 77 11 137
11 l110 1 20 -31z m335 18 c14 -8 49 -26 79 -42 29 -16 61 -41 70 -56 10 -16
38 -47 64 -69 26 -23 47 -46 47 -52 0 -17 -140 -2 -203 22 -30 11 -93 47 -141
80 -47 33 -92 60 -100 60 -36 0 -24 57 13 63 60 9 148 6 171 -6z"/>
</g>
</svg>
