<?xml version="1.0" ?>
<svg viewBox="0 0 512 512" 
    xmlns="http://www.w3.org/2000/svg">
    <title/>
    <desc/>
    <g id="Outline">
        <path d="M496,153.6c0-17.075-12.018-30.216-30.618-33.479l-2.764,15.76C478.747,138.708,480,150.157,480,153.6v53.442c-8.135-1.921-16-6.779-16-15.041V173.667H448V192a27.74,27.74,0,0,0,5.628,16.9l-21.06,20.106a24.185,24.185,0,0,0-3.02,3.085c-.676-.057-1.355-.094-2.038-.094H392a40.382,40.382,0,0,0-8.289.863l53.946-53.946c.041-.041.076-.087.115-.129.023-.023.047-.042.069-.066,13.409-14.329,18.723-28.669,15.8-42.622-1.808-8.618-6.588-15.729-12.033-21.338l-1.628-19.393-15.95,1.262.41,5.186c-2.517-1.4-4.358-2.25-5.032-2.549L412.3,95.714l-8.387-20.55L389.094,81.21l1.489,3.648L379.726,79.43l-7.393-18.263L357,65.833l1.015,2.741-.925-.463-29.924-36.2c-.068-.082-.137-.163-.208-.242-7.143-7.971-16.272-16.091-29.7-15.657-18.247.552-27.016,5.167-36,12.95a8,8,0,0,0,5.462,14.043l13.894-.387L305.99,75.243,256.2,59.667a8,8,0,0,0-9.763,4.535,29.86,29.86,0,0,0,16.913,39.48l.153.056,121.7,43.468L376,156.114v-6.858H360v22.359l-8,7.751v-14.11H336v29.612l-19.631,19.019q-2.169-.708-4.369-1.331V197.835a16,16,0,1,0-16,0v11.331a118.531,118.531,0,0,0-16-1.158V192H264v16H248V192H232v16.008a118.531,118.531,0,0,0-16,1.158V197.835a16,16,0,1,0-16,0v14.721c-1.678.477-3.347.982-5,1.532l-9.4-9.4V176h-16v12.684l-8-8V160h-16v4.684L133.111,152.2l97.4-90.909A29.622,29.622,0,0,0,240,39.973a31.332,31.332,0,0,0-9.121-22.223c-.813-.812-1.75-1.844-5.184-1.743-.032,0-.062-.007-.094-.007a94.568,94.568,0,0,0-61.5,22.751L129.6,68.687V64h-16V84.687l-8,8V88h-16v20.687l-5.657,5.656a53.316,53.316,0,0,0,0,75.314c.01.01.021.018.031.027L126.885,232.6A40.534,40.534,0,0,0,120,232s-36.872.037-37.548.094a24.185,24.185,0,0,0-3.02-3.085L58.371,208.9A27.733,27.733,0,0,0,64,192V145.889l7.155-14.311a8,8,0,0,0-6.864-11.573c-5.263-.191-14.557-.431-17.673.115C28.018,123.383,16,136.524,16,153.6V216a8,8,0,0,0,8,8,50.031,50.031,0,0,0,21.8-4.979L67.16,239.414a23.827,23.827,0,0,0-6.637,15.56,7.837,7.837,0,0,1-.818-.559l-24.27-23.171L24.386,242.816s24.787,23.656,24.932,23.776a23.4,23.4,0,0,0,14.934,5.4c.745,0,1.492-.036,2.237-.108a23.765,23.765,0,0,0,18,8.115H97.025q-8.418,3.654-16.8,7.381c-5.042,2.253-10.01,4.28-13.741,8.534A23.361,23.361,0,0,0,49.317,301.2c-.145.119-.285.244-.42.373L24.569,324.789A24.8,24.8,0,0,0,16.6,348.745a7.971,7.971,0,0,0-.6,3.041v62.4c0,17.075,12.018,30.216,30.618,33.479a52.027,52.027,0,0,0,7.219.335c3.588,0,7.61-.117,10.454-.221a8,8,0,0,0,6.864-11.572L64,421.9V375.786a27.734,27.734,0,0,0-5.63-16.906S81.536,336.812,82.45,335.7c.677.057,1.356.094,2.04.094h26.083l-22,21A24.8,24.8,0,0,0,80.6,380.745a7.971,7.971,0,0,0-.6,3.041v62.4c0,17.075,12.018,30.216,30.618,33.479a52.027,52.027,0,0,0,7.219.335c3.588,0,7.61-.117,10.454-.221a8,8,0,0,0,6.864-11.572L128,453.9V407.786a27.734,27.734,0,0,0-5.63-16.906l21.061-20.1a24.049,24.049,0,0,0,3.019-3.085c.677.057,23.985.094,23.985.094a39.787,39.787,0,0,0,3.253,3.848A48.07,48.07,0,0,0,144,416v28a52.059,52.059,0,0,0,52,52h12a32,32,0,0,0,0-64h-8V416h8a39.981,39.981,0,0,0,33.164-17.63l-13.258-8.957A24,24,0,0,1,208,400h-8V383.914c.853.055,64.805.086,64.805.086A40.067,40.067,0,0,0,304,416h8v16h-8a32,32,0,0,0,0,64h12a52.059,52.059,0,0,0,52-52V416a48.07,48.07,0,0,0-29.688-44.362,39.93,39.93,0,0,0,3.253-3.848H363.51c.684,0,1.363-.037,2.04-.094a24.049,24.049,0,0,0,3.019,3.085l21.061,20.1A27.734,27.734,0,0,0,384,407.786V453.9l-7.155,14.311a8,8,0,0,0,6.864,11.572c12.463.455,24.472.472,34.964-7.213A32.524,32.524,0,0,0,432,446.187v-62.4a7.971,7.971,0,0,0-.6-3.041,24.8,24.8,0,0,0-7.967-23.956l-22-21H427.51c.684,0,1.363-.037,2.04-.094a24.049,24.049,0,0,0,3.019,3.085l21.061,20.1A27.734,27.734,0,0,0,448,375.786V421.9l-7.155,14.311a8,8,0,0,0,6.864,11.572c2.845.1,6.866.221,10.454.221a52.027,52.027,0,0,0,7.219-.335c18.6-3.263,30.618-16.4,30.618-33.479v-62.4a7.971,7.971,0,0,0-.6-3.041,24.8,24.8,0,0,0-7.967-23.956L463.1,301.572c-.135-.129-.275-.254-.42-.373a23.363,23.363,0,0,0-17.167-5.283,23.737,23.737,0,0,0-8.637-6.23c-.527-.407-21.9-9.686-21.9-9.686H427.51a23.778,23.778,0,0,0,18.007-8.115q1.114.108,2.231.108a23.405,23.405,0,0,0,14.934-5.4q.217-.18.422-.376l24.325-23.223a24.768,24.768,0,0,0,7.969-23.952A7.971,7.971,0,0,0,496,216ZM48.845,140.422A7.994,7.994,0,0,0,48,144v48c0,8.262-7.865,13.12-16,15.041V153.6c0-3.437,1.251-14.858,17.315-17.707.365-.044,1-.073,1.839-.089Zm.47,291.472C33.251,429.045,32,417.624,32,414.187V360.745c8.135,1.921,16,6.779,16,15.041v48a7.99,7.99,0,0,0,.845,3.577l2.309,4.62C50.318,431.966,49.68,431.938,49.315,431.894ZM45.8,348.763a48.749,48.749,0,0,0-13.744-4.32,8.568,8.568,0,0,1,2.962-7.532q.216-.18.419-.373l24.272-23.163a7.837,7.837,0,0,1,.818-.559,23.815,23.815,0,0,0,6.638,15.558ZM480,414.187c0,3.437-1.251,14.858-17.315,17.707-.365.044-1,.072-1.839.089l2.309-4.62a7.99,7.99,0,0,0,.845-3.577v-48c0-8.262,7.865-13.12,16-15.041Zm-29.209-96.576a24.117,24.117,0,0,0,.687-4.8,7.932,7.932,0,0,1,.817.559l24.272,23.163q.2.193.419.373a8.568,8.568,0,0,1,2.962,7.532,48.749,48.749,0,0,0-13.744,4.32l-21.363-20.388A23.96,23.96,0,0,0,450.791,317.611ZM419.91,117.73c1.517.959,3.17,2.088,4.846,3.382,5.123,3.956,11.577,10.346,13.231,18.32,1.417,6.834-.849,14.31-6.743,22.293l-21.66-19.8ZM292.855,32.293c1.506-.136,3.13-.232,4.888-.286,5.567-.159,10.427,2.7,17.195,10.226l25.246,30.54L329.75,79.729ZM268.964,88.7a13.745,13.745,0,0,1-7.745-7.471,13.981,13.981,0,0,1-.994-3.538l65.1,20.378a9.063,9.063,0,0,0,7.789-1.146l19.457-13.182L405.686,110.3,395.6,133.933Zm131.2,66.284,20.269,18.534L370.343,223.6a36.919,36.919,0,0,1-17.372,9.8,119.864,119.864,0,0,0-20.442-12.9ZM174.507,50.9a78.486,78.486,0,0,1,23.708-13.965L166.638,64h-7.415ZM140.911,80H169.6a8,8,0,0,0,5.207-1.926l48.822-41.847A13.943,13.943,0,0,1,224,39.7a13.742,13.742,0,0,1-4.4,9.893l-97.808,91.288L100.911,120Zm-50.7,51.925L110.284,152,90.208,172.075A37.382,37.382,0,0,1,90.208,131.925ZM100.914,184,121.6,163.313l57.422,57.423a119.737,119.737,0,0,0-24.569,16.438,37.6,37.6,0,0,1-3.2-2.831ZM84.49,264c-3.722,0-7.99-2.833-7.99-8.833,0-2.579,2.666-5.675,5.057-6.614A8.041,8.041,0,0,1,84.49,248H120a23.848,23.848,0,0,1,16.974,7.028c.134.134.259.277.39.415q-3.115,4.126-5.88,8.557Zm0,55.79a8.01,8.01,0,0,1-2.914-.546c-3.747-1.462-5.966-7.379-4.307-10.876a7.97,7.97,0,0,1,3.519-3.673L124.7,319.333C123.169,319.635,84.49,319.79,84.49,319.79Zm28.825,144.1C97.251,461.045,96,449.624,96,446.187V392.745c8.135,1.921,16,6.779,16,15.041v48a7.99,7.99,0,0,0,.845,3.577l2.309,4.62C114.318,463.966,113.68,463.938,113.315,463.894ZM109.8,380.763a48.749,48.749,0,0,0-13.744-4.32,8.568,8.568,0,0,1,2.962-7.532q.216-.18.419-.373l24.272-23.163a7.837,7.837,0,0,1,.818-.559,23.815,23.815,0,0,0,6.638,15.558ZM148.49,351.79a11.049,11.049,0,0,1-2.915-.546c-5.45-1.494-5.325-8.244-4.4-10.684.032-.063.063-.126.093-.19a7.952,7.952,0,0,1,7.223-4.58h3.319l9.143,16ZM160,416a32.058,32.058,0,0,1,24-30.988V432H160Zm48,32a16,16,0,0,1,0,32H196a36.052,36.052,0,0,1-35.779-32Zm96-48a24.042,24.042,0,0,1-22.629-16H312v16Zm12,80H304a16,16,0,0,1,0-32h47.779A36.052,36.052,0,0,1,316,480Zm36-64v16H328V385.012A32.058,32.058,0,0,1,352,416Zm-21.732-60.093A24.054,24.054,0,0,1,309.43,368H202.57a24.054,24.054,0,0,1-20.838-12.093l-22.786-39.876a8,8,0,0,0-4.416-3.62l-52.038-17.347,36.659-15.711a8,8,0,0,0,3.795-3.384A103.368,103.368,0,0,1,232.5,224h47a103.368,103.368,0,0,1,89.552,51.969,8,8,0,0,0,3.8,3.384l36.659,15.711L357.47,312.411a8,8,0,0,0-4.416,3.62Zm40.877-10.194a7.421,7.421,0,0,1-4.7,5.524,8.041,8.041,0,0,1-2.933.553H351.048l9.143-16h3.319C369.136,335.79,372.086,341.163,371.145,345.713ZM416,446.187c0,3.437-1.251,14.858-17.315,17.707-.365.044-1,.072-1.839.089l2.309-4.62a7.99,7.99,0,0,0,.845-3.577v-48c0-8.262,7.865-13.12,16-15.041Zm-3.433-77.649q.2.193.419.373a8.568,8.568,0,0,1,2.962,7.532,48.749,48.749,0,0,0-13.744,4.32l-21.363-20.388a23.84,23.84,0,0,0,6.637-15.559,7.932,7.932,0,0,1,.817.559ZM431.211,304.7a8,8,0,0,1-3.7,15.094H392a24.278,24.278,0,0,1-4.7-.457Zm-7.346-40.657q-21.646,0-43.292-.027c-2.268-3.274-6.3-6.617-4.36-10.16,1.252-2.29,7.227-4.982,9.737-4.982,4.32-1,30.225-.892,38.721-.856a15.518,15.518,0,0,1,6.326.911,7.682,7.682,0,0,1,3.97,9.6C434.864,258.823,434.125,264.039,423.865,264.039Zm53.127-33.175q-.22.181-.427.38L452.3,254.415a7.766,7.766,0,0,1-.817.558,23.834,23.834,0,0,0-6.639-15.557l21.361-20.4a48.746,48.746,0,0,0,13.748,4.322A8.542,8.542,0,0,1,476.992,230.864Z"/>
        <path class="highlighting" d="M297.6,343.556l7.536,12.56,13.72-8.232-7.536-12.56A64.9,64.9,0,0,0,264,304.51V240H248v64.51a64.9,64.9,0,0,0-47.324,30.814l-7.536,12.56,13.72,8.232,7.536-12.56A48.785,48.785,0,0,1,248,320.7V352h16V320.7A48.785,48.785,0,0,1,297.6,343.556Z"/>
        <rect class="highlighting" height="16" width="16" x="176" y="256"/>
        <rect class="highlighting" height="16" width="16" x="216" y="256"/>
        <rect class="highlighting" height="16" width="16" x="192" y="288"/>
        <rect class="highlighting" height="16" width="16" x="320" y="256"/>
        <rect class="highlighting" height="16" width="16" x="280" y="256"/>
        <rect class="highlighting" height="16" width="16" x="304" y="288"/>
    </g>
</svg>