<?xml version="1.0" ?>
<svg viewBox="0 0 512 512" 
    xmlns="http://www.w3.org/2000/svg">
    <title/>
    <desc/>
    <g id="Outline">
        <path d="M456,309.1V260.28a75.765,75.765,0,0,0-11.385-40.107A46.684,46.684,0,0,1,472,262.63v18.74a63.068,63.068,0,0,0,18.343,44.287l11.314-11.314A46.954,46.954,0,0,1,488,281.37V262.63a62.692,62.692,0,0,0-61.517-62.6A76.207,76.207,0,0,0,379.72,184H316.912A176.2,176.2,0,0,0,173.621,88.526l7.288-12.495A8,8,0,0,0,174,64s-21.73,0-39.841-.016h-.077A84.568,84.568,0,0,0,85.575,79.245l-.564.393A67.629,67.629,0,0,0,56.073,132.1L19,161.753a8,8,0,0,0-2.592,8.777l8,24A8,8,0,0,0,32,200l-.768.494a8,8,0,0,0-4.868,9.892l5,16A8,8,0,0,0,39,232H59.946l57.217,78.023a103.115,103.115,0,0,0,60.9,39.577l-7.409,11.861-61.462,23.048a8,8,0,0,0-4.781,4.961L98.234,408H64v-6.111l14.311-28.622L119.467,342.4l-9.6-12.8L67.2,361.6a8,8,0,0,0-2.355,2.822l-16,32A7.994,7.994,0,0,0,48,400v16a8,8,0,0,0,8,8h48a8,8,0,0,0,7.59-5.47l6.793-20.38,60.426-22.659a8,8,0,0,0,3.974-3.25L192,357.5v38.222l-13.91,9.273A22.611,22.611,0,0,0,168,423.845V440a8,8,0,0,0,8,8h56a8,8,0,0,0,7.845-6.431S256,360.527,256,360v-8h32c.711,0,82.476-22.2,82.476-22.2l.641,2.248A71.119,71.119,0,0,0,408,376.432v12.255L364.687,432H336v-6.11a7.953,7.953,0,0,1,4.418-7.155l7.16-3.58a7.986,7.986,0,0,0,2.079-1.5l16-16A8,8,0,0,0,366.4,387.2l-4-5.327a91.625,91.625,0,0,1-15.4-31.9l-15.479,4.054a107.556,107.556,0,0,0,17.912,37.223l-10.175,10.175-6,3A23.866,23.866,0,0,0,320,425.89V440a8,8,0,0,0,8,8h40a8,8,0,0,0,5.657-2.343l48-48A8,8,0,0,0,424,392v-9.812a71.287,71.287,0,0,0,8,1.369v19.5l-2.738,1.369A23.866,23.866,0,0,0,416,425.89V440a8,8,0,0,0,8,8h40a8,8,0,0,0,6.4-3.2l24-32A8,8,0,0,0,496,408V360a8,8,0,0,0-1.854-5.122ZM43.9,212.874l11.6-4.278A12.649,12.649,0,0,0,51.35,184H37.766L35.1,176H56V160H46.806l20-16H96v29.1L60.253,216H44.882Zm86.161,87.688L74.151,224.315l36-43.193A8,8,0,0,0,112,176V136a8,8,0,0,0-8-8H72.5A51.64,51.64,0,0,1,94.15,92.771l.565-.393a68.635,68.635,0,0,1,39.366-12.394h.064c8.751.008,18.344.012,25.927.014L153.09,91.969A8,8,0,0,0,160,104a160.278,160.278,0,0,1,138.724,80H232a8,8,0,0,0-5.656,13.658l2.143,2.143a141.8,141.8,0,0,1,31.565,47.868l1.55,3.874-5.648,2.259A141.947,141.947,0,0,1,203,264h-3a8,8,0,0,0-8,8v63.626A87.073,87.073,0,0,1,130.065,300.562ZM480,405.333,460,432H432v-6.11a7.953,7.953,0,0,1,4.418-7.155l7.16-3.58A8,8,0,0,0,448,408V376a8,8,0,0,0-8-8,55.649,55.649,0,0,1-53.5-40.344,75.057,75.057,0,0,1,.193-36.807L371.3,286.484c-3.619,12.76-4.354,21.754-4.154,27.637L286.929,336H256V296H240v63.208L225.441,432H184v-8.155a6.643,6.643,0,0,1,2.965-5.54l17.473-11.649A8,8,0,0,0,208,400V279.922a157.791,157.791,0,0,0,53.9-11.265l13.075-5.229a8,8,0,0,0,4.457-10.4l-4.521-11.3A157.621,157.621,0,0,0,250.25,200H379.72A60.2,60.2,0,0,1,418.5,214.143c1.338,1.117,2.633,2.3,3.848,3.514A59.886,59.886,0,0,1,440,260.28V312a8,8,0,0,0,1.854,5.122L480,362.9Z"/>
        <rect class="highlighting" height="30.336" transform="translate(-1.307 274.983) rotate(-81.469)" width="16" x="151" y="123.082"/>
        <rect class="highlighting" height="29.347" transform="translate(-78.121 245.318) rotate(-66.931)" width="16" x="138.5" y="167.076"/>
        <rect class="highlighting" height="29.026" transform="translate(-116.431 188.714) rotate(-47.793)" width="16.001" x="146.75" y="211.237"/>
        <rect class="highlighting" height="27.019" transform="translate(-121.19 124.686) rotate(-38.991)" width="16" x="107.5" y="219.991"/>
        <polygon class="highlighting" points="152.619 254.847 140.381 265.153 156.381 284.153 167.791 274.544 168.57 274.163 167.795 274.541 168.619 273.847 152.619 254.847"/>
        <rect class="highlighting" height="29.296" transform="translate(-95.874 303.691) rotate(-62.56)" width="16" x="194" y="216.102"/>
        <rect class="highlighting" height="30.842" transform="translate(-50.65 306.293) rotate(-70.096)" width="16" x="185" y="173.829"/>
        <rect class="highlighting" height="32.985" transform="translate(26.091 329.417) rotate(-75.964)" width="16" x="216" y="131.508"/>
        <rect class="highlighting" height="16" width="24" x="112" y="96"/>
        <rect class="highlighting" height="24" width="16" x="272" y="296"/>
        <rect class="highlighting" height="16" width="16" x="304" y="296"/>
    </g>
</svg>