<?xml version="1.0" ?>
<svg viewBox="0 0 512 512" 
    xmlns="http://www.w3.org/2000/svg">
    <title/>
    <desc/>
    <g id="Outline">
        <path d="M494.826,459.829,408,317.75V312H392v95.21A421.078,421.078,0,0,0,398.357,480H376a55.527,55.527,0,0,1-21-4.078,56.2,56.2,0,0,1-28.052-24.89c-.041-.074-.083-.148-.127-.221A56.071,56.071,0,0,1,320,424V200a8,8,0,0,0-2.343-5.657l-6.6-6.6a24.46,24.46,0,0,1-2.237-31.5l10.554-14.072A79.207,79.207,0,0,0,373.6,175.3l-13.287,46.5a8,8,0,0,0,2.035,7.855,101.389,101.389,0,0,1,12.49,15.19l-9.03-.341a8,8,0,0,0-8.272,8.705l1.691,18.94a181.677,181.677,0,0,1-11.248-36.926l-15.7,3.092c8.367,42.476,25.32,66.59,38.069,79.34l11.314-11.314a97.845,97.845,0,0,1-13.952-17.852c.033,0,.064.006.1.007l13.26.328,12.681,9.659a24.859,24.859,0,0,0,15.1,5.118,25.141,25.141,0,0,0,6.12-.759,24.858,24.858,0,0,0,16.564-13.669l2.02-3.931,1.865,1.307a8,8,0,1,0,9.182-13.1l-3.666-2.569,21.713-42.255a39.988,39.988,0,0,0-3.014-40.823L424.1,137.063a39.945,39.945,0,0,0-19.9-14.937l-4.044-6.742a47.674,47.674,0,0,1-6.754-27.475c.96-16.338.376-27.572-1.784-34.339C383.675,28.641,367.662,16,344.03,16H331.48a35.089,35.089,0,0,0-13.36,2.626A34.7,34.7,0,0,0,306.3,26.388,36.76,36.76,0,0,0,295.88,52c0,.08,0,.16,0,.24l.059,1.985-7.1,14.2a8,8,0,0,0,1.5,9.235l5.632,5.632-.1,12.651a8,8,0,0,0,8,8.06H320v16H296.662l-43.643-7.274L203.54,27.909A24.081,24.081,0,0,0,182.81,16H168a24.027,24.027,0,0,0-24,24V64h16V58.246l18.161,4.541,38.454,92.29a8,8,0,0,0,5.65,4.733l48,10.666,3.47-15.619-43.947-9.766-38.4-92.168a8,8,0,0,0-5.445-4.684L160,41.754V40a8.009,8.009,0,0,1,8-8h14.81a8.027,8.027,0,0,1,6.91,3.971l51.37,88.06a8,8,0,0,0,5.595,3.86c18.916,3.153,38,8.451,57.315,8.109l-7.985,10.647a40.5,40.5,0,0,0,3.728,52.41L304,203.313V424a72.267,72.267,0,0,0,5.164,26.8L282.7,462.141A17.639,17.639,0,0,0,289.64,496H352a7.972,7.972,0,0,0,5.682-2.371A71.783,71.783,0,0,0,376,496h32a8,8,0,0,0,7.845-9.569A404.913,404.913,0,0,1,408.211,420l28.012,34.238-12.033,8.023A18.421,18.421,0,0,0,434.42,496H456a8,8,0,0,0,4.8-1.6l32-24A8,8,0,0,0,494.826,459.829Zm-107.2-275.4,25.339,29.305-12.806,29a8.014,8.014,0,0,0-7.18,1.126q-1.481-2.642-3.111-5.24c-.019-.032-.039-.063-.059-.094a117.373,117.373,0,0,0-12.855-16.746Zm29.591,97.584c-.057.11-.111.22-.161.332a8.987,8.987,0,0,1-13.619,3.414L388.7,274.528a8,8,0,0,0-4.649-1.633l-8.714-.216-1.058-11.842,12.994.492,10.652,5.326a7.938,7.938,0,0,0,8.194-.632l14.2,9.953ZM411,146.238l35.519,50.738a23.963,23.963,0,0,1,1.85,24.418L427.7,261.612l-14.041-9.84,15.99-36.21a8,8,0,0,0-1.266-8.464l-38.33-44.33-.01.008A7.991,7.991,0,0,0,384,160a63.02,63.02,0,0,1-49.29-24h56.63a23.688,23.688,0,0,1,5.714.692A23.941,23.941,0,0,1,411,146.238ZM344.03,32c16.768,0,26.442,7.9,32.349,26.433.693,2.172,2.184,9.3,1.055,28.531a63.52,63.52,0,0,0,7,33.036H368V102.27c0-14.315-7.978-23.211-16.438-33.769-8.71-10.87-15.157-23.466-19.948-36.5ZM328,88H311.94l.06-7.94a8,8,0,0,0-2.343-5.717l-3.923-3.923c.1.095,6.154-13.615,6.29-15.548.438-6.235.49-11.354,4.925-16.415A153.157,153.157,0,0,0,333.08,70.316C340.044,80.674,352,88.558,352,102.27V120H336V96A8,8,0,0,0,328,88ZM288.493,479.539A1.65,1.65,0,0,1,288,478.36a1.628,1.628,0,0,1,.991-1.507l27.793-11.911A72.422,72.422,0,0,0,330.751,480H289.64A1.624,1.624,0,0,1,288.493,479.539Zm164.84.461H434.42a2.423,2.423,0,0,1-1.342-4.434l19.36-12.91a8,8,0,0,0,1.753-11.722L408,394.475V348.432l69.381,113.532Z"/>
        <path d="M344,199.994,336,200h-8a197.269,197.269,0,0,0,1.885,23.816l15.859-2.116A185.538,185.538,0,0,1,344,199.994Z"/>
        <path class="highlighting" d="M354.562,336.384c-6.788-18.4-10.762-34.169-10.8-34.326l-15.522,3.882c.675,2.7,16.828,66.441,42.1,91.717l11.314-11.314C372.677,377.363,363.308,360.087,354.562,336.384Z"/>
        <path class="highlighting" d="M328.572,394.971c16.421,41.053,40.743,65.658,41.771,66.686l11.314-11.314c-.228-.228-23.015-23.279-38.229-61.314Z"/>
        <path class="highlighting" d="M288,296a7.971,7.971,0,0,0-.646-3.151l-38.5-89.838a131.009,131.009,0,0,0,17-2.879l-3.71-15.564A114.713,114.713,0,0,1,242.2,187.5l-2.849-6.649a8,8,0,0,0-14.708,0l-2.616,6.106c-5.815-.9-12.8-3.069-20.1-5.334-9.239-2.866-18.731-5.811-27.767-6.823A24.128,24.128,0,0,0,160,161.376V144H144v17.376a24.127,24.127,0,0,0-14.138,13.359c-10.959,1.009-21.716,4.422-31.386,7.5a148.444,148.444,0,0,1-16.547,4.625l-2.575-6.01a8,8,0,0,0-14.708,0L61.8,187.5a114.674,114.674,0,0,1-19.942-2.93l-3.71,15.564a130.29,130.29,0,0,0,33.569,3.509L107.867,288H36.133L65.64,219.151l-14.707-6.3-34.286,80A7.954,7.954,0,0,0,16,296a40.045,40.045,0,0,0,40,40H88a40.045,40.045,0,0,0,40-40,7.971,7.971,0,0,0-.646-3.151l-39-91c4.765-1.12,9.791-2.717,14.974-4.366,8.127-2.586,17.1-5.434,25.7-6.554a24,24,0,0,0,45.918.124c6.925,1.1,14.68,3.5,22.247,5.851,6.379,1.98,12.547,3.889,18.384,5.12l-38.925,90.827A7.954,7.954,0,0,0,176,296a40.045,40.045,0,0,0,40,40h32A40.045,40.045,0,0,0,288,296ZM88,320H56a24.042,24.042,0,0,1-22.629-16h77.258A24.042,24.042,0,0,1,88,320Zm64-128a8,8,0,1,1,8-8A8.009,8.009,0,0,1,152,192Zm115.867,96H196.133L232,204.309ZM248,320H216a24.042,24.042,0,0,1-22.629-16h77.258A24.042,24.042,0,0,1,248,320Z"/>
        <rect class="highlighting" height="16" width="16" x="144" y="112"/>
        <rect class="highlighting" height="16" width="16" x="144" y="80"/>
    </g>
</svg>