<?xml version="1.0" ?>
<svg viewBox="0 0 512 512" 
    xmlns="http://www.w3.org/2000/svg">
    <title/>
    <desc/>
    <g id="Outline">
        <path class="highlighting" d="M36,120a20,20,0,1,0-20-20A20.023,20.023,0,0,0,36,120Zm0-24a4,4,0,1,1-4,4A4,4,0,0,1,36,96Z"/>
        <rect class="highlighting" height="16" width="16" x="80" y="32"/>
        <rect class="highlighting" height="16" width="16" x="48" y="48"/>
        <path class="highlighting" d="M296,308a20,20,0,1,0-20,20A20.023,20.023,0,0,0,296,308Zm-24,0a4,4,0,1,1,4,4A4,4,0,0,1,272,308Z"/>
        <rect class="highlighting" height="16" width="16" x="216" y="176"/>
        <rect class="highlighting" height="16" width="16" x="344" y="264"/>
        <rect class="highlighting" height="16" width="16" x="152" y="232"/>
        <path class="highlighting" d="M412,456a20,20,0,1,0,20,20A20.023,20.023,0,0,0,412,456Zm0,24a4,4,0,1,1,4-4A4,4,0,0,1,412,480Z"/>
        <rect class="highlighting" height="16" width="16" x="464" y="400"/>
        <rect class="highlighting" height="16" width="16" x="448" y="432"/>
        <path class="highlighting" d="M45.555,222.435c4.653,39.552,17.581,71.5,40.684,100.545l12.522-9.96c-13.32-16.745-31.679-44.546-37.316-92.455Z"/>
        <path class="highlighting" d="M191.333,439.167a24,24,0,1,0,24-24A24.028,24.028,0,0,0,191.333,439.167Zm24-8a8,8,0,1,1-8,8A8.009,8.009,0,0,1,215.333,431.167Z"/>
        <path class="highlighting" d="M79.743,343.542a8,8,0,0,0,1.651,7.127c21.712,25.647,61.939,38.891,63.641,39.441l4.935-15.219c-.325-.106-28.525-9.42-48.2-26.4l27.651-10.844c6.49,8.247,19.8,23.94,30.855,29.11l6.777-14.494c-8.051-3.765-21.736-19.779-28.47-28.987a8,8,0,0,0-9.381-2.729l-44.625,17.5A8,8,0,0,0,79.743,343.542Z"/>
        <path class="highlighting" d="M182.06,360.239a8,8,0,0,0-4.92,3.645l-24,40a8,8,0,0,0-.568,7.087l16,40,14.856-5.942L168.9,408.713l20.254-33.756,28.785-7.2-3.88-15.522Z"/>
        <path  d="M283.48,352.8c-.168-.082-.344-.138-.51-.225-.318-.127-29.086-11.644-47.213-19.866,2.13-19.519,2.343-53.687-12.2-95.344a8.016,8.016,0,0,0-7.543-5.394h-.056a7.956,7.956,0,0,0-7.522,5.437c-.288.818-7.364,20.081-34.372,26.833a8,8,0,0,0-5.462,10.8l10.934,26.679a317.761,317.761,0,0,1-41.974-31.839c.7-16.047.066-37.682-5.944-56.328a8,8,0,0,0-13.635-2.814l-15.422,17.629A146.886,146.886,0,0,1,84.3,183.576c43.984,2.84,97.305,42.168,97.926,42.514,7.023,3.91,12.523-.59,12.757-5.916,1.527-34.786-5.469-60.383-22.779-76.187a62.67,62.67,0,0,0-30.39-14.968c27.685-32.352,9.939-74.985,9.939-74.985a8.009,8.009,0,0,0-5.335-5.661c-3.4-1.078-5.153-.13-10.958,3.018C89.1,76.533,55.177,115.967,34.824,164.576l14.759,6.18a236.154,236.154,0,0,1,14.732-29.273,196.046,196.046,0,0,0,2.379,35.363c6.482,39.85,27.647,75.264,57.2,102.189,27.771,25.3,69.1,51.965,105.325,68.2,3.919,1.756,32.806,16.847,34.788,14.914a20.218,20.218,0,0,0-5.73,14.753c.117,7.3,3.748,14.169,10.223,19.349,2.488,1.991,6.069,6.053,10.389,11.962l10.077,69.636c-3.717.336-8.314.733-13,1.095L267.6,412.666l-15.875,2,8.23,65.251c-1.517.053-2.844.081-3.959.081A224,224,0,0,1,32,256a217.036,217.036,0,0,1,10.03-64.51l-15.277-4.756A233.015,233.015,0,0,0,16,256,237.926,237.926,0,0,0,68.093,405.355c-14.764-5.345-26.668-10.588-26.856-10.671a8,8,0,0,0-9.954,11.662c5.735,8.865,14.235,23.654,15.181,28.783C47.978,443.284,48,455.875,48,456a8,8,0,0,0,8,8h47V448H63.791A123.75,123.75,0,0,0,62.2,432.219c-.682-3.7-2.881-8.821-5.516-14.011a330.132,330.132,0,0,0,32.91,10.7A239.237,239.237,0,0,0,256,496c18.667,0,42.727-3,42.886-3.021a8,8,0,0,0,7.121-9.1L300.034,442.6c5.871,10.924,12.033,23.511,18.125,37.579.88,2.031,1.639,3.113,4.646,4.352,1.945.8,5.21.17,6.354-.418l17.5-9a8,8,0,0,0,4.164-8.787C350.034,462.639,330.958,375.735,283.48,352.8ZM111.44,85.137c5.39-4.607,18.53-12.36,27.309-17.283.776,3.237,1.476,6.51,2.015,9.8l-25.685,20.04,9.842,12.616,16.173-12.619c-1.974,10.486-8.428,21.379-25.211,31.452a8,8,0,0,0,5.344,14.764c.233-.035,23.405-3.426,40.19,11.9a44.747,44.747,0,0,1,6.9,8.053l-24.191-7.8L139.21,171.28l37.383,12.059a102.779,102.779,0,0,1,2.7,21.369c-20.157-13.026-61.17-36.35-97.77-37.266-1.9-15.894-1.634-33.026.8-52.057A220.393,220.393,0,0,1,111.44,85.137ZM213.474,258.9c7.457,27.694,8.031,50.708,6.905,66.288-6.2-3.2-12.182-6.429-17.888-9.643l-15.781-38.5A66.2,66.2,0,0,0,213.474,258.9ZM111.883,242l7.909-9.041a160.93,160.93,0,0,1,1.89,20.913Q116.435,248.006,111.883,242Zm217.5,224.005c-19.313-42.75-39.883-73.45-50.886-82.254-2.71-2.168-4.17-4.617-4.221-7.084a4.707,4.707,0,0,1,.851-3.015l5.562-4.172c31.371,19.163,48.259,75.793,53.048,94.286Z"/>
        <rect class="highlighting" height="16" width="16" x="112" y="296"/>
        <path class="highlighting" d="M413.239,198.98c13.32,16.745,31.679,44.546,37.316,92.455l15.89-1.87c-4.653-39.552-17.581-71.5-40.684-100.545Z"/>
        <path class="highlighting" d="M296.667,48.833a24,24,0,1,0,24,24A24.027,24.027,0,0,0,296.667,48.833Zm0,32a8,8,0,1,1,8-8A8.009,8.009,0,0,1,296.667,80.833Z"/>
        <path class="highlighting" d="M351.722,145.238l-6.777,14.494c8.051,3.765,21.736,19.779,28.47,28.987a8,8,0,0,0,9.381,2.729l44.625-17.5a8,8,0,0,0,3.185-12.617c-21.712-25.647-61.939-38.891-63.641-39.441l-4.935,15.219c.325.106,28.525,9.42,48.2,26.395l-27.651,10.844C376.087,166.1,362.777,150.408,351.722,145.238Z"/>
        <path class="highlighting" d="M294.06,144.239l3.88,15.522,32-8a8,8,0,0,0,4.92-3.645l24-40a8,8,0,0,0,.568-7.087l-16-40-14.856,5.942L343.1,103.287l-20.254,33.756Z"/>
        <rect class="highlighting" height="16" width="16" x="384" y="200"/>
        <path  d="M473.24,356.336C488.129,324.316,496,289.621,496,256a237.926,237.926,0,0,0-52.093-149.355c14.764,5.345,26.668,10.588,26.856,10.671a8,8,0,0,0,9.953-11.663c-5.733-8.859-14.233-23.643-15.18-28.783C464.022,68.716,464,56.125,464,56a8,8,0,0,0-8-8H375.755A240.114,240.114,0,0,0,267.409,16.267l-.749,15.982c.147-3.071,54.767,9.44,59.52,11.006A226.084,226.084,0,0,1,412.8,96.033,222.347,222.347,0,0,1,480,256c0,39.395-11.722,79.54-32.313,114.348a195.977,195.977,0,0,0-2.381-35.195c-5.829-35.834-24.046-68.315-49.127-94.233q-3.942-4.072-8.075-7.955c-18.305-17.231-40.639-33.277-68.28-49.053-23.138-13.207-47.215-23.959-71.833-34.057a20.218,20.218,0,0,0,5.73-14.753c-.117-7.3-3.748-14.169-10.223-19.349-2.488-1.991-6.069-6.053-10.389-11.962L223.036,34.183,236.03,33,244.4,99.334l15.875-2-9.334-74a8,8,0,0,0-8.662-6.966l-29.09,2.648a8,8,0,0,0-7.192,9.112L211.966,69.4C206.1,58.475,199.933,45.888,193.841,31.82a8,8,0,0,0-11-3.934l-17.5,9a8,8,0,0,0-4.164,8.787c.789,3.688,19.865,90.592,67.343,113.53.168.082,29.6,11.869,47.723,20.091-2.13,19.519-2.343,53.687,12.2,95.344a8.016,8.016,0,0,0,7.543,5.394h.056a7.956,7.956,0,0,0,7.522-5.437c.288-.818,7.364-20.081,34.372-26.833a8,8,0,0,0,5.462-10.795l-9.142-22.308-14.805,6.069,5.835,14.235A66.2,66.2,0,0,0,298.526,253.1c-7.457-27.694-8.031-50.708-6.9-66.288,29.481,15.23,58.229,32.869,82.82,55.31-.7,16.047-.066,37.681,5.943,56.327a8.1,8.1,0,0,0,13.636,2.815l15.422-17.629a147.359,147.359,0,0,1,20.071,54.086c2.894,17.788,2.947,37.068.17,58.832a218.611,218.611,0,0,1-29.124,30.306c-5.39,4.607-18.53,12.36-27.309,17.283-.776-3.237-1.476-6.51-2.015-9.8l25.685-20.04-9.842-12.616-16.173,12.619c1.974-10.486,8.428-21.379,25.211-31.452a8,8,0,0,0-5.344-14.764c-.231.034-23.405,3.426-40.19-11.9a44.747,44.747,0,0,1-6.9-8.053l24.191,7.8,4.913-15.226-37.383-12.059a102.772,102.772,0,0,1-2.7-21.376c16.726,10.8,47.84,28.708,78.807,35.018l3.195-15.678c-41-8.354-84.5-40.394-84.934-40.715a8,8,0,0,0-12.757,5.916c-2.195,34.75,5.469,60.383,22.779,76.187a62.669,62.669,0,0,0,30.391,14.968c-12.577,13.182-17.653,29.3-15.466,48.8.994,8.888,3.331,17.54,5.526,26.187a8.247,8.247,0,0,0,7.78,6.088c2.158,0,4.236-1.126,8.518-3.447,15.726-8.526,30.689-17.542,43.788-30.059a242.61,242.61,0,0,0,33.787-40.272A250.927,250.927,0,0,0,473.24,356.336ZM399.975,64h48.234A123.75,123.75,0,0,0,449.8,79.781c.682,3.7,2.881,8.821,5.516,14.011a330.132,330.132,0,0,0-32.91-10.7A240.526,240.526,0,0,0,399.975,64ZM178.262,48.232l4.354-2.239c19.313,42.75,39.588,73.831,50.886,82.254,8.165,6.086-2.192,14.271-2.192,14.271C199.939,123.355,183.051,66.725,178.262,48.232ZM392.208,279.039a160.93,160.93,0,0,1-1.89-20.913q5.247,5.868,9.8,11.872Z"/>
    </g>
</svg>