<?xml version="1.0" ?>
<svg viewBox="0 0 512 512" 
    xmlns="http://www.w3.org/2000/svg">
    <title/>
    <desc/>
    <g id="Outline">
        <path d="M448,280H408v16h40a8.009,8.009,0,0,1,8,8v60.47a8,8,0,0,1-5.47,7.591L440,375.571V336a24.028,24.028,0,0,0-24-24H392V222l8-6a40.176,40.176,0,0,0,16-32V173.848a33.754,33.754,0,0,0,4.069-6.026,16.163,16.163,0,0,0,2.284.183,15.875,15.875,0,0,0,8.841-2.693l17.68-11.786A15.967,15.967,0,0,0,456,140.213v-7.437a15.969,15.969,0,0,0-7.125-13.313l-18.054-12.036a16.049,16.049,0,0,0-10.467-2.608l-47.573,4.757L371.766,104H384a8,8,0,0,0,7.155-11.578l-.793-1.585A60.586,60.586,0,0,1,384,63.885V56a40.045,40.045,0,0,0-40-40H320a24.028,24.028,0,0,0-23.94,22.391l-11.55,30.8A8,8,0,0,0,292,80h4V96h16V80h8a8,8,0,0,0,5.657-2.343L328,75.313V96h16V86.25s5.75,10.25,10.694,13.3l2.114,11.62-11.3,1.13-13.929-6.965a7.994,7.994,0,0,0-3.578-.845H304a8,8,0,0,0-8,8v2.781q-1-.326-2.017-.606L217.907,38.593,206.593,49.907l64.018,64.019A59.732,59.732,0,0,0,253.824,120H169.889L160,115.056V96a25.187,25.187,0,0,1,9.484-19.75l12-9.584A49.127,49.127,0,0,0,200,28.12V24a8,8,0,0,0-8-8h-8a8,8,0,0,0-8,8,33.441,33.441,0,0,1-16.808,28.964L137.91,65.119A35.556,35.556,0,0,0,120,96v24H104a8,8,0,0,0-10.53-7.59l-24,8a8,8,0,0,0,0,15.18l24,8A8,8,0,0,0,104,136h16v40a35.655,35.655,0,0,0,17.922,30.887l21.261,12.144A33.377,33.377,0,0,1,176,248a8,8,0,0,0,8,8h8a8,8,0,0,0,8-8v-4.12c0-.24-.017-.478-.02-.717l69.27-74.6,2.75,2.749V184a40.177,40.177,0,0,0,16,32l8,6v29.056L238.111,280H192a63.62,63.62,0,0,0-44.787,18.284A64.308,64.308,0,0,0,130.038,328h-.178a32.2,32.2,0,0,0-30.652,22.8l-7.381,24.593a45.429,45.429,0,0,1-32.848,31.3l17.574-61.506a45.944,45.944,0,0,1,44-33.187H128V296h-7.45a62.012,62.012,0,0,0-59.382,44.792L40.308,413.8A8,8,0,0,0,48,424a61.373,61.373,0,0,0,59.152-44.01l7.382-24.594A16.094,16.094,0,0,1,128,344.124V396L99.2,417.6a8,8,0,0,0-2.961,8.34l16,64A8,8,0,0,0,120,496h32a8,8,0,0,0,8-8v-6a38.233,38.233,0,0,0-6.606-21.412l-4.132-16.527,5.838-3.185,21.546,50.275A8,8,0,0,0,184,496h32a8,8,0,0,0,8-8v-5.46a36.539,36.539,0,0,0-7.619-22.317l-7.235-25.333a76.677,76.677,0,0,0,21.958-32.2l-15.072-5.372A60.731,60.731,0,0,1,195.2,425.6a8,8,0,0,0-2.892,8.6c2.151,7.533,3.966,15.162,6.234,22.662,2.06,6.812,5.811,12.146,8.184,18.572A20.6,20.6,0,0,1,207.842,480H189.275l-19.789-46.173,8.532-8.531a98.887,98.887,0,0,0,25.51-36.567l1.89-4.729H286.35a63.667,63.667,0,0,0,36.7-11.566L340.812,360H392v19.056l-11.578,5.789A8,8,0,0,0,376,392v32a8,8,0,0,0,10.53,7.59l37.06-12.354A23.97,23.97,0,0,0,440,396.468v-4.032l15.594-5.2A23.978,23.978,0,0,0,472,364.47V304A24.028,24.028,0,0,0,448,280ZM316.687,64H303.544l6-16h13.512l3.21,6.42ZM344,66.438V62.69l.011,0A3.584,3.584,0,0,1,344,66.438Zm-3.673-19.671-5.172-10.345A8,8,0,0,0,328,32h16a24.028,24.028,0,0,1,24,24v7.885A76.659,76.659,0,0,0,371.921,88h-3.3a7.978,7.978,0,0,1-6.681-3.6L356.6,76.3c.443-.629.878-1.306,1.289-2.028a19.008,19.008,0,0,0-.789-20.785C352.907,47.35,346.146,46.146,340.327,46.767ZM312,232h24v16H312Zm40,0h24v16H352Zm40-30.126v-6.443l7.63-7.26A24.151,24.151,0,0,1,392,201.874Zm-80-81.38h14.111l14.311,7.155a7.94,7.94,0,0,0,4.374.805l77.15-7.715L440,132.776v7.437L422.32,152l-76.751-15.351L312,136.494ZM168,136h88a8,8,0,0,0,4.437-1.343,41.486,41.486,0,0,1,20.453-5.767c1.079,0,2.151.06,3.215.163L262.8,152H208.792l-39.223-7.845A8.026,8.026,0,0,0,168,144h-8a8.009,8.009,0,0,1-8-8,8,8,0,0,0-8-8h6.111l14.311,7.155A7.994,7.994,0,0,0,168,136ZM136,96a19.559,19.559,0,0,1,9.857-16.994l2.437-1.392A41.237,41.237,0,0,0,144,96v16h-8Zm9.859,97A19.618,19.618,0,0,1,136,176V144h1.371A24.059,24.059,0,0,0,144,153.851V176a41.224,41.224,0,0,0,4.295,18.386Zm35.616,12.335-11.984-9.574A25.193,25.193,0,0,1,160,176V160h7.208l39.223,7.845A8.026,8.026,0,0,0,208,168h39.94l-52.075,56.081A49.253,49.253,0,0,0,181.475,205.33ZM296,139.757v4.737a8,8,0,0,0,8,8h32V176h16V154.253l50.954,10.191C402.788,164.615,380.8,184,380.8,184H352v16h24v16H352v-8H336v8H312V200h24V184H307.314l-27.168-27.169ZM288.285,187.6,296,195.313v6.561A24.132,24.132,0,0,1,288.285,187.6ZM424,396.468a7.989,7.989,0,0,1-5.471,7.589L392,412.9V396.944l11.578-5.789A8,8,0,0,0,408,384V352a8,8,0,0,0-8-8H336a24.028,24.028,0,0,1-24-24V304H296v16a40.051,40.051,0,0,0,22.6,36.014l-4.733,3.313A47.741,47.741,0,0,1,286.35,368H208V336H192v38.461l-3.328,8.327a82.64,82.64,0,0,1-37.1,41.788l-15.4,8.4a8,8,0,0,0-3.93,8.963c1.761,7.044,3.275,14.214,5.315,21.181,1.72,5.873,5.774,10.606,6.353,16.879H126.246l-13.2-52.787L140.8,406.4A8,8,0,0,0,144,400s.164-60.628.49-62.869A48.01,48.01,0,0,1,192,296h48a7.994,7.994,0,0,0,3.578-.845L305.889,264H376v48H352v16h64a8.009,8.009,0,0,1,8,8Z"/>
    </g>
</svg>