<?xml version="1.0" ?>
<svg viewBox="0 0 512 512" 
    xmlns="http://www.w3.org/2000/svg">
    <title/>
    <desc/>
    <g id="Outline">
        <path d="M436.8,352.946a24.758,24.758,0,0,0,2.121-2.065h0c13.606-14.967,13.818-47.007-6.3-65.887-22.076-20.716-41.7-13.73-54.68-9.108-1.594.568-3.12,1.111-4.547,1.569-14.653-1.011-21.914-22.248-21.98-22.447a8,8,0,0,0-15.577,1.932l-11.4-7.6A8,8,0,0,0,320,248h-.028a93.17,93.17,0,0,0-1.743-16h15.555l38.1,22.86a8,8,0,0,0,9.238-.714l48-40A8,8,0,0,0,432,208V160a8,8,0,0,0-2.343-5.657L413.834,138.52a8.188,8.188,0,0,0-9.492-1.638,8,8,0,0,0-3.5,10.7L408,161.889v42.266l-32.654,26.123-35.23-21.138A8.009,8.009,0,0,0,336,208H310.088l-7.111-16H328a39.966,39.966,0,0,0,36.875-24.508C385.8,163.241,400,132.136,400,104V72a56.064,56.064,0,0,0-55.782-56,8.158,8.158,0,0,0-7.861,5.634,8,8,0,0,0,5.113,9.956C341.655,31.651,360,37.975,360,56c0,2.915,0,5.83.007,8.358a61.822,61.822,0,0,0-14.779,3.1c-13.141-9.081-17.344-28.835-17.384-29.03A8,8,0,0,0,320.19,32L320,32a8,8,0,0,0-7.759,6.059c-4.916,19.656,2.719,36.427,11.356,48.124A42.286,42.286,0,0,0,320,104a90.806,90.806,0,0,0,9.429,40H312a39.792,39.792,0,0,0-29.939,13.475A32.584,32.584,0,0,0,264,152a15.9,15.9,0,0,0-8,2.147A15.9,15.9,0,0,0,248,152a32.584,32.584,0,0,0-18.061,5.475A39.79,39.79,0,0,0,200,144H182.64A91.025,91.025,0,0,0,192,104a42.286,42.286,0,0,0-3.595-17.817c8.637-11.7,16.272-28.468,11.356-48.124a8,8,0,0,0-15.6.371c-.043.212-4.341,19.986-17.388,29.028a61.838,61.838,0,0,0-14.775-3.1C152,61.83,152,58.915,152,56c0-17.788,17.814-24.162,18.53-24.41a8,8,0,0,0,5.113-9.956A8.158,8.158,0,0,0,167.782,16,56.064,56.064,0,0,0,112,72v32a90.33,90.33,0,0,0,10.339,41.753C130.113,160.1,140.647,168,152,168c7.016,0,13.392-3,18.9-8H200a23.878,23.878,0,0,1,19.112,9.49c-.323.616-2.977,6.51-2.977,6.51H184a23.969,23.969,0,0,1-15.877-6l-10.589,12A39.966,39.966,0,0,0,184,192h25.023l-7.044,15.849-27.539.142a6.013,6.013,0,0,0-3.128.9l-34.658,21.39L104,204.155V161.889l7.045-14.09a8.183,8.183,0,0,0-1.448-9.519,8.006,8.006,0,0,0-11.254.063l-16,16A8,8,0,0,0,80,160v48a8,8,0,0,0,2.878,6.146l48,40a8,8,0,0,0,9.238.714l38.1-22.86h15.555a93.17,93.17,0,0,0-1.743,16H192a8.006,8.006,0,0,0-4.439,1.344l-43.29,28.86L116.8,257.6A8,8,0,0,0,112,256h-8a8,8,0,0,0-6.146,2.878l-40,48a8,8,0,0,0-.51,9.56l16,24a8,8,0,0,0,11.21,2.142,8.164,8.164,0,0,0,2.965-9.322L80.966,313.6,107.845,280h1.488L139.2,302.4a8,8,0,0,0,9.237.256L194.6,272a179.545,179.545,0,0,0,7.633,24H192a8,8,0,0,0-5.657,2.343L164.687,320H112a8,8,0,0,0-7.353,4.849l-24,56a8,8,0,0,0,.2,6.729l16,32a8,8,0,0,0,11.418,3.194,8.156,8.156,0,0,0,3.446-8.922l-7.23-28.919L124.944,344H168a8,8,0,0,0,5.657-2.343L195.313,320h14.921l2.918,8.754-25,31.246H152a8,8,0,0,0-5.657,2.343l-16,16A8,8,0,0,0,128,384v56a8.006,8.006,0,0,0,1.344,4.439l16,24a8,8,0,0,0,11.21,2.142,8.164,8.164,0,0,0,2.965-9.322L152,438.7V387.313L155.314,384H200a8,8,0,0,0,6.247-3l20.3-25.369a41.325,41.325,0,0,0,14.217,9.442l5.909-14.869A25.247,25.247,0,0,1,232,334.7L212.259,275.48a80.321,80.321,0,0,1-4.228-23.121,77.039,77.039,0,0,1,6.644-33.68l8.34-18.765L240,200V184h-9.912S234.5,168,248,168v48h16V168c13.75,0,17.912,16,17.912,16H272v16h17.083l8.242,18.679a77.45,77.45,0,0,1,2.7,55.945L280,334.7a25.249,25.249,0,0,1-14.646,15.49,8,8,0,0,0-2.713,13.116C268.414,369.052,272,380.046,272,392c0,8.167-1.689,16-4.76,22.1a8.472,8.472,0,0,0-.993,3.763,8.019,8.019,0,0,0,5.422,7.662,50.489,50.489,0,0,1,18.655,12.154,54.467,54.467,0,0,1,9.758,13.117,8.434,8.434,0,0,0,1.811,2.424,8.007,8.007,0,0,0,9.6.886c6.266-3.879,15.2-6.1,24.506-6.1,8.908,0,17.561,2.062,23.772,5.662a8.285,8.285,0,0,0,2.983,1.105,8.032,8.032,0,0,0,8.437-4.494A53.426,53.426,0,0,1,381.676,435.7c5.811-5.811,12.582-10.168,19.1-12.293a8.653,8.653,0,0,0,3.581-2.11,8.016,8.016,0,0,0,1.6-8.841,54.5,54.5,0,0,1,.112-41.165l-14.587-6.574a66.917,66.917,0,0,0-5.5,27.287,70.775,70.775,0,0,0,2.572,19.176c-1.529.756-3.048,1.6-4.551,2.5V384a8,8,0,0,0-2.343-5.657l-16-16A8,8,0,0,0,360,360H323.845l-25-31.246L301.766,320h15.567L347.2,342.4A8,8,0,0,0,352,344h27.8c10.834,10.013,24.35,15.867,36.771,15.867.324,0,.65,0,.973-.012.148,0,.292-.015.439-.02V360c7.553,0,16,13.686,16,32,0,10.212-3.1,22.34-9.074,28.439l-9.036-4.195-6.738,14.512,8.573,3.98c-1.148,7.449-6.065,16.252-13.4,23.587C394.225,468.4,382.931,472.69,375.779,471.9l-1.339-10.878-15.88,1.956,1.385,11.255C353.784,477.884,345.168,480,336,480c-8.329,0-16.376-1.8-22.427-4.925l.774-11.269-15.962-1.1-.756,11c-8.1,1.942-21.239-4.711-29.933-13.4-9.261-9.262-13.3-19.163-13.626-26.015l7.572-3.544-6.784-14.49-6.689,3.131C243.757,414.127,240,404.553,240,392a55.113,55.113,0,0,1,1.736-13.97l-15.476-4.06A71.091,71.091,0,0,0,224,392c0,16.515,5.295,31.328,14.066,40.033-.513,12.579,6.307,27.574,18.317,39.585,15.206,15.2,34.432,21.63,48.04,16.688C313.045,493.233,324.264,496,336,496c12.861,0,24.859-3.237,33.713-8.993,13.488,3.607,31.557-3.023,45.9-17.369,10.713-10.713,17.423-24.007,18.263-35.754,9.9-8.3,16.1-24.107,16.1-41.884C449.979,375.72,444.832,361.584,436.8,352.946ZM152,152c-10.579,0-24-22.6-24-48V72a39.809,39.809,0,0,1,9.009-25.263A41.716,41.716,0,0,0,136,56c0,3.052,0,6.1-.007,8.711l0,5.225c0,3.114,0,5.364,2.351,7.717A8,8,0,0,0,144,80c32,0,32,18.064,32,24C176,129.4,162.579,152,152,152ZM368,80a8,8,0,0,0,5.661-2.347c2.35-2.353,2.35-4.6,2.351-7.717,0,0-.012-10.884-.012-13.936a41.716,41.716,0,0,0-1.009-9.263A39.809,39.809,0,0,1,384,72v32c0,25.4-13.421,48-24,48s-24-22.6-24-48C336,98.064,336,80,368,80Zm-72,96v.3s-2.789-6.2-3.112-6.813A23.878,23.878,0,0,1,312,160h29.135a33.61,33.61,0,0,0,7.043,4.993,24.116,24.116,0,0,1-3.2,3.98A23.843,23.843,0,0,1,328,176Zm9.753,205A8,8,0,0,0,312,384h44.686L360,387.313V436.17A68.777,68.777,0,0,0,336,432a67.8,67.8,0,0,0-25.673,4.812,72.484,72.484,0,0,0-8.689-10.449,69.838,69.838,0,0,0-17-12.629A70.245,70.245,0,0,0,288,392c0-11.967-2.836-23.215-7.831-31.819a41.3,41.3,0,0,0,5.29-4.546Zm48.914-61L324.8,297.6A8,8,0,0,0,320,296H309.766l5.439-16.315q1.268-3.8,2.194-7.685h.179l18.233,12.153v.9c0,21.435,16.9,31.2,29.436,34.4.047.177.1.366.152.548Zm72.414,20.118h0c-2.1,2.306-5.626,3.634-9.939,3.741-9.126.2-19.513-4.6-27.864-12.921-7.917-7.883-9.321-19.133-9.33-19.2a8,8,0,0,0-7.1-7.105c-.859-.093-21.037-2.457-21.037-19.576v-.692c5.738,5.185,13.211,9.131,22.668,9.131a7.963,7.963,0,0,0,2.269-.329c2.172-.643,4.3-1.4,6.558-2.2,12.038-4.285,23.409-8.332,38.365,5.7C431.205,305.61,437.823,328.3,427.081,340.118Z"/>
        <rect class="highlighting" height="16" width="64" x="224" y="232"/>
        <rect class="highlighting" height="16" width="64" x="224" y="264"/>
        <rect class="highlighting" height="16" width="32" x="240" y="296"/>
    </g>
</svg>