<?xml version="1.0" ?>
<svg viewBox="0 0 512 512" 
    xmlns="http://www.w3.org/2000/svg">
    <title/>
    <desc/>
    <g id="Outline">
        <path d="M450.6,208.775a117.373,117.373,0,0,0-20.455-12.761,106.314,106.314,0,0,0-39.44-28.548c-14.354-5.984-30.77-10.841-42-22.073l-58.859-58.86A104.264,104.264,0,0,0,132.72,97.7L68,184H60a4,4,0,0,1-4-4,20.023,20.023,0,0,0-20-20H24a8,8,0,0,0-5.657,13.657A19.185,19.185,0,0,1,24,187.313V200a32.036,32.036,0,0,0,32,32h8c0,18.154,9.169,36.806,14.846,53.839l-20.5,20.5a8,8,0,0,0-1.5,9.235l16,32A8,8,0,0,0,80,352H96v24a63.153,63.153,0,0,1-27.347-6.609C47.721,358.94,32,333.15,32,309.85a59.894,59.894,0,0,1,11.511-34.531L57.08,257.227l-12.8-9.6-13.574,18.1A74.858,74.858,0,0,0,16,309.85c0,29.6,18.989,60.62,45.5,73.848A79.222,79.222,0,0,0,96.69,392H104a8,8,0,0,0,8-8V344a8,8,0,0,0-8-8H84.944l-11.21-22.42L84.5,302.811,88.41,314.53A8,8,0,0,0,96,320h32a24.028,24.028,0,0,0,24-24v-4.184l16,6.4v22.676c0,38.2,41.147,79.108,79.108,79.108a63.58,63.58,0,0,0,35.384-10.714l9.946-6.63A8,8,0,0,0,294.4,371.2l-24-32a8,8,0,0,0-12.057-.857L248,348.687l-23.141-23.141L230.246,304H331.165A123.669,123.669,0,0,0,392,358.5V372.32c-14.884,12.758-30.751,24.37-45.049,37.81a97.9,97.9,0,0,0-14.971,17.479C331.052,429,325.25,440,323.719,440H288.76a41.694,41.694,0,0,1,14.977-24.743q.192-.155.375-.319l45.26-41.009a8,8,0,0,0-1.257-12.789A74.146,74.146,0,0,1,314.863,317.8l-15.383,4.4a90.038,90.038,0,0,0,31.635,46.681l-37.57,34.042A57.645,57.645,0,0,0,272,448a8,8,0,0,0,8,8h48a8,8,0,0,0,6.656-3.562l15.388-23.083,55.162-47.281A8,8,0,0,0,408,376V363.91A123.281,123.281,0,0,0,439.55,368H440v12.687l-34.348,34.346A46.647,46.647,0,0,0,392,448a8,8,0,0,0,8,8h48a8,8,0,0,0,6.656-3.562L470.217,429.1l23.44-23.44A8,8,0,0,0,496,400V301.61A116.856,116.856,0,0,0,450.6,208.775ZM480,301.61V321.9l-6.259-7.509c-1.338-1.611-2.583-3.239-3.725-4.857-.412-2.195-.726-4.322-.926-6.335l-1.63-16.312a82.927,82.927,0,0,0-11.377-34.25c-.371-.616-.737-1.206-1.1-1.782a105.786,105.786,0,0,0-5.386-21.764A100.859,100.859,0,0,1,480,301.61ZM56,216a16.019,16.019,0,0,1-16-16V187.313a35.422,35.422,0,0,0-1.577-10.494A4,4,0,0,1,40,180a20.023,20.023,0,0,0,20,20h4v16ZM480,396.687c-8.337,8.336-17.751,16.328-24.666,25.893-4.08,5.643-7.752,11.625-11.615,17.42H409.062a30.753,30.753,0,0,1,1.27-3.722,30.427,30.427,0,0,1,6.635-9.93l36.69-36.691A8,8,0,0,0,456,384V360a8,8,0,0,0-8-8h-8.45a109.42,109.42,0,0,1-71.371-27.014,107.212,107.212,0,0,1-24.909-32.347c-8.282-20.123-10.276-44.033-10.295-44.273l-15.951,1.264A194.216,194.216,0,0,0,324.617,288H243.853A61.779,61.779,0,0,0,256,251.155V248H240v3.155a45.807,45.807,0,0,1-20.438,38.189,8,8,0,0,0-3.323,4.716l-8,32a8,8,0,0,0,2.1,7.6l32,32a8,8,0,0,0,11.314,0l9.478-9.477,13.39,17.854-2.909,1.94A47.629,47.629,0,0,1,247.108,384C217.71,384,184,350.105,184,320.892V264H168v16.984l-16-6.4v-7.271l13.657-13.656A8,8,0,0,0,168,248V232h8a32.036,32.036,0,0,0,32-32V187.313a19.185,19.185,0,0,1,5.657-13.656A8,8,0,0,0,208,160H196a20.023,20.023,0,0,0-20,20,4,4,0,0,1-4,4H152a24,24,0,0,0,0,48v12.687l-13.657,13.656A8,8,0,0,0,136,264v32a8.009,8.009,0,0,1-8,8H101.767L80,238.7V194.666L145.521,107.3A88.677,88.677,0,0,1,216.13,72a88.315,88.315,0,0,1,62.4,25.848l58.86,58.859c12.788,12.788,30.824,18.717,47.163,25.528a90.1,90.1,0,0,1,54.78,72.284c.008.083.017.166.028.249,1.876,14.514,1.079,28.08,6.163,42.124,6.845,18.91,21.637,34.6,34.473,50v49.791ZM152,216a8,8,0,0,1,0-16h20a20.023,20.023,0,0,0,20-20,4,4,0,0,1,1.577-3.181A35.422,35.422,0,0,0,192,187.313V200a16.019,16.019,0,0,1-16,16Z"/>
        <path class="highlighting" d="M360,248h-8a87.7,87.7,0,0,0,8.845,35.578l14.31-7.156A72.437,72.437,0,0,1,368,247.979Z"/>
        <path class="highlighting" d="M213.267,219.532c.061.127,6.061,12.813.022,24.89l14.311,7.156c9.677-19.355.4-38.356,0-39.156Z"/>
        <rect class="highlighting" height="16" width="16" x="280" y="248"/>
        <path class="highlighting" d="M300.438,161.344l-8.876,13.312c.2.137,20.438,14.815,20.438,57.344h16C328,180.312,301.563,162.094,300.438,161.344Z"/>
        <path class="highlighting" d="M260.8,161.6l-9.6,12.8c.288.216,28.8,22.012,28.8,57.6h16C296,188.5,262.237,162.678,260.8,161.6Z"/>
    </g>
</svg>