<?xml version="1.0" ?>
<svg viewBox="0 0 512 512" 
    xmlns="http://www.w3.org/2000/svg">
    <title/>
    <desc/>
    <g id="Outline">
        <path d="M456,448a8.009,8.009,0,0,1-8-8,24.027,24.027,0,0,0-24-24,8.009,8.009,0,0,1-8-8,24.027,24.027,0,0,0-24-24h-4.183a7.96,7.96,0,0,1-7.646-5.647l-21.119-68.635a114.241,114.241,0,0,0-21.227-38.7c-2.305-2.753-6.9-5.9-7.623-9.48a9.663,9.663,0,0,1,.323-3.986c1.413-6.318,1.94-12.824,3.775-19.05.418-1.419,5.148-14.124,6.4-14.013C347.6,225.1,360,226,373,226c29.7,0,45.168-4.448,50.155-14.422,19.47-38.939,28.249-64.827,32.2-80.055L475.48,104.7a17.317,17.317,0,0,0,2.57-15.849C474.534,78.265,471.54,64,457.3,64A17.32,17.32,0,0,0,440,81.3V84L420.8,98.4a32.052,32.052,0,0,0-8.581,9.744q-.977.681-1.957,1.355L384.209,31.331c23.537-.676,49.277,4.331,59.253,6.514l4.416,13.761,15.235-4.889-5.806-18.092a8,8,0,0,0-5.666-5.313C449.848,22.86,389-1.5,290.555,28.907,241.389,44.093,206.283,67.932,193.6,77.345A64,64,0,0,0,104,136a63.5,63.5,0,0,0,4.367,23.241c-8.831,13.183-15.3,23.879-15.437,24.118l13.83,8.046c8.368-14.384,36.114-56.443,49.011-65.931C160.364,122.094,164.012,120,168,120a16.019,16.019,0,0,1,16,16c0,8.279-5.245,18.848-12.5,33.475-2.809,5.662-5.994,12.078-9.253,19.16-2.518,5.47-4.819,10.776-7.035,16.226C136.9,249.96,128,300.707,128,360v56c0,10.382-16,10.315-16,0v-8H96v8c0,6.947-8.766,10.544-13.653,5.672A7.98,7.98,0,0,1,80,416a8,8,0,0,0-16,0c0,10.349-16,10.351-16,0V376c0-46.485,15.934-94.3,30.362-128.062.542.037,1.087.062,1.638.062a24.037,24.037,0,1,0-16.319-6.423C48.638,276.771,32,326.816,32,376v40a24.027,24.027,0,0,0,24,24,24.571,24.571,0,0,0,15.991-6.109,24.03,24.03,0,0,0,32.023,0A23.986,23.986,0,0,0,144,416V360c0-47.984,6.02-90.027,18.294-127.81l6.7,20.093A40.55,40.55,0,0,0,207.45,280a40.71,40.71,0,0,0,38.982-29.4l1.521-5.321a37.814,37.814,0,0,0,8.047,7.3V344H208a8,8,0,0,0-8,8V480H153.889a1.9,1.9,0,0,1-.84-3.575l26.53-13.27a8,8,0,0,0,4.4-7.773c-2.138-27.593-7.664-99.048-7.976-103.623V337.04A25.068,25.068,0,0,1,201.04,312H240V296H201.04A41.087,41.087,0,0,0,160,337.04V352c0,.411,0,1.029,7.608,99.252L145.9,462.11A17.888,17.888,0,0,0,153.89,496H208a8,8,0,0,0,8-8v-4.272A47.681,47.681,0,0,0,248.07,496H456a24,24,0,0,0,0-48ZM80,216a8,8,0,1,1-8,8A8.009,8.009,0,0,1,80,216ZM458.157,80.637a1.334,1.334,0,0,1,.517.681L462.868,93.9a1.31,1.31,0,0,1-.187,1.2L441.6,123.2a7.956,7.956,0,0,0-1.359,2.848c-3.551,14.208-11.88,39.34-31.358,78.305-.874,1.749-4.991,2.511-6.549,2.959-20.228,5.817-44.772,3.035-65.453.738a8,8,0,0,0-8.037,4.373l-4.275,8.551A100.3,100.3,0,0,1,294,192h90a8,8,0,0,0,6.656-3.562l32-48A7.993,7.993,0,0,0,424,136c0-8.54-1.615-18.787,6.4-24.8l22.4-16.8A8,8,0,0,0,456,88V81.684a1.331,1.331,0,0,1,2.076-1.1ZM218.924,174.766c5.931.55,11.941.932,18,1.105l-.337,1.593a38.559,38.559,0,0,0-26.629,26.559l-2.546,8.913L200.2,191.314A63.848,63.848,0,0,0,218.924,174.766ZM320.632,92.493q.781.638,1.5,1.357c4.534,4.517,5.1,10.525,6.148,16.493,1.053,6.006,3.282,10.68,5.979,16.073-.027-.053-5.231,6.122-5.652,7.248C327.4,136.917,328,140.591,328,144H312a8,8,0,0,0-8,8v24H293.4c4.874-.015,7.145-25.6,7.549-30.054q.9-9.957,1.808-19.913c.209-2.3-.427-9.142,1-11.049Zm49.9-51.586L350.7,34.818l-.459-1.378c5.8-.58,11.619-.985,17.4-1.214Zm13.8,41.394L372,78.156l7.836-9.339Zm10.043,30.135,1.984,5.952c-3.454,2.067-6.964,4.066-10.5,5.974Zm-25.6-55.331-7.619,9.08-4.241-12.721ZM384.211,99.14l-8.225,11.515-5.362-16.083Zm-4.041,46.231A313.388,313.388,0,0,0,408,130.034v3.544L379.718,176H320v-9.27c0-1.448,19.1-5.548,21.119-6.136A249.89,249.89,0,0,0,380.17,145.371ZM289.6,107.2a7.99,7.99,0,0,0-1.567,4.077c-1.053,11.592-.852,23.277-2.37,34.831a75.443,75.443,0,0,1-3.824,16.669C280.952,165.143,276.8,176,274.188,176H253.251l13.436-63.494c.023-.112.045-.226.064-.339A28.83,28.83,0,0,1,295.27,88H304Zm5.685-63.008a265.653,265.653,0,0,1,38.777-8.7l32.754,98.245c-7.433,3.335-15.057,6.378-22.816,9.115v-3.54l5.657-5.657a8,8,0,0,0,1.5-9.235L344,110.111V108a35.818,35.818,0,0,0-10.553-25.467C322.7,71.828,309.3,72,295.27,72A44.78,44.78,0,0,0,251,109.355l-10.7,50.581c-4.268-.075-8.509-.263-12.721-.537a64.02,64.02,0,0,0-19.15-73.014A320.334,320.334,0,0,1,295.285,44.192ZM168,104c-8.824,0-15.649,4.126-21.711,8.586-7.342,5.4-16.906,17.077-25.906,29.417a48.569,48.569,0,0,1-.383-6,48,48,0,1,1,88.528,25.741c-.064.091-.126.183-.187.276a47.982,47.982,0,0,1-21.111,17.975c-1.252.548-2.526,1.032-3.814,1.469.828-1.679,1.636-3.308,2.413-4.873C194.056,160.009,200,148.031,200,136A32.036,32.036,0,0,0,168,104Zm63.048,142.2a24.643,24.643,0,0,1-23.6,17.8,24.552,24.552,0,0,1-23.281-16.78l-13.016-39.05c1.187-2.856,2.406-5.692,3.679-8.548a63.586,63.586,0,0,0,10.6-2.036l14.982,44.944A8,8,0,0,0,208,248c.058,0,.117,0,.175,0a8,8,0,0,0,7.518-5.8l9.649-33.777a22.6,22.6,0,0,1,19.014-16.246c.9-.115,8.482-.174,8.482-.174a37.379,37.379,0,0,0-13.127,23.893ZM256,360v12.264l-40,39.8V360Zm-7.93,120a32.067,32.067,0,0,1-23.395-54l31.363-31.2a103.392,103.392,0,0,0,7.012,34.84l-12.707,12.707a8,8,0,0,0,4.993,13.629L279.685,458a104.822,104.822,0,0,0,24.952,22ZM456,480H360a88.1,88.1,0,0,1-88-88V248a8,8,0,0,0-4.422-7.155,22.1,22.1,0,0,1-1.83-38.5l11.321-7.075a116.332,116.332,0,0,0,41.813,40.924L315.038,253.6a22.042,22.042,0,0,0,5.5,22.245,93.745,93.745,0,0,1,23.224,38.574l21.118,68.635A23.881,23.881,0,0,0,387.817,400H392a8.009,8.009,0,0,1,8,8,23.885,23.885,0,0,0,1.376,8H384v16h40a8.009,8.009,0,0,1,8,8,23.885,23.885,0,0,0,1.376,8H416v16h40a8,8,0,0,1,0,16Z"/>
        <path class="highlighting" d="M346.343,389.657l11.314-11.314a292.043,292.043,0,0,1-46.373-60.188l-13.85,8.011A308.1,308.1,0,0,0,346.343,389.657Z"/>
        <path class="highlighting" d="M303.178,303.017a161.606,161.606,0,0,1-7.592-17.556l-15.175,5.069a172.614,172.614,0,0,0,8.411,19.55Z"/>
        <path class="highlighting" d="M332.865,436.584c13.186,13.333,26.848,22.42,40.605,27l5.06-15.178c-11.35-3.784-22.886-11.548-34.288-23.078Z"/>
        <path class="highlighting" d="M303.309,364.748,296,368l-7.311,3.249c.524,1.179,13.083,29.176,34.47,54.654l12.255-10.287C315.527,391.925,303.429,365.017,303.309,364.748Z"/>
        <path class="highlighting" d="M69.485,310.785c-.36,1.821-8.794,45.015-8.485,81.283l16-.136c-.3-34.611,8.1-77.62,8.183-78.051Z"/>
        <path class="highlighting" d="M93.228,384.331l16,.348c.1-4.474.228-8.967.387-13.353l-15.989-.582C93.459,375.208,93.327,379.779,93.228,384.331Z"/>
        <path class="highlighting" d="M116.243,293.664,100.4,291.427c-2.633,18.65-4.59,38.558-5.816,59.172l15.972.95C111.756,331.364,113.669,311.889,116.243,293.664Z"/>
        <path class="highlighting" d="M102.979,274.81l15.774,2.674a442.2,442.2,0,0,1,12.613-54.753l-15.3-4.674A457.885,457.885,0,0,0,102.979,274.81Z"/>
        <path class="highlighting" d="M143.013,192.183,129,184.467a142.733,142.733,0,0,0-7.736,18.056l15.018,5.52A132.789,132.789,0,0,1,143.013,192.183Z"/>
        <rect class="highlighting" height="16" width="16" x="64" y="160"/>
        <rect class="highlighting" height="16" width="16" x="48" y="112"/>
        <rect class="highlighting" height="16" width="16" x="48" y="464"/>
        <rect class="highlighting" height="16" width="16" x="80" y="480"/>
    </g>
</svg>