<?xml version="1.0" ?>
<svg viewBox="0 0 512 512"
    xmlns="http://www.w3.org/2000/svg">
    <title/>
    <desc/>
    <g>
    <rect
       y="136"
       x="136"
       width="16"
       height="16"
       class="highlighting" />
    <path
       class="highlighting"
       d="M 250.534,131.679 C 268.64152,122.70211 280.06952,104.21045 280,84.000005 280.001,38.247612 235.72873,5.549418 192,19.006004 c -5.00481,-1.545363 -10.17331,-2.499523 -15.4,-2.843 -1.447,-0.11 -2.953,-0.163 -4.6,-0.163 -36.0018,-0.119821 -65.75657,28.045795 -67.611,64.000001 H 136 v -16 h -12.048 c 2.59331,-6.290386 6.42685,-11.994102 11.272,-16.771 0.8,-0.8 1.631,-1.56 2.474,-2.3 l 7.112,14.579 4.7,-2.291 c -3.64143,8.459277 -5.51643,17.573258 -5.51,26.783 v 11.999998 h 16 32 16 8 c 0,0 8.01003,-0.245725 8,8.000007 -0.007,5.76485 0.75641,9.79991 -1.1,16.31799 -1.47806,5.18966 -5.79237,13.60854 -4.99074,13.77599 11.76298,2.45714 23.15582,2.31972 32.62474,-2.41499 z M 222.9,120.318 c 0.73095,-2.71221 1.10081,-5.0063 1.1,-8.31799 v -8 c 0,0 0.15826,-8.000007 -8,-8.000007 h -8 V 84.000005 c 0,-6.627421 5.37258,-11.999995 12,-11.999995 6.62742,0 12,5.372574 12,11.999995 -0.0144,11.909018 -2.78683,23.652885 -8.1,34.310995 z M 151.286,36.289005 c 5.3016,-2.299247 10.95132,-3.692917 16.714,-4.123 v 0.049 c -4.62277,3.930317 -8.70341,8.456845 -12.135,13.461 z m 8.714,47.711 c 0,-1.347 0.068,-2.678 0.169,-4 H 176 v -16 h -12 c 3.09946,-7.384507 7.85531,-13.957499 13.9,-19.211 l 6.857,14.611 14.486,-6.8 -7.7,-16.4 c 5.22618,-2.240986 10.78674,-3.602999 16.457,-4.031 v 15.831 h 16 v -14.587 c 6.73135,1.597976 13.07423,4.528675 18.654,8.619 l -8.311,8.311 11.314,11.314 8.311,-8.311 c 6.52656,8.887158 10.0416,19.627782 10.032,30.654 0.0484,14.143988 -7.94955,27.084975 -20.622,33.366995 l -1.984,0.992 c 4.34986,-10.93369 6.59129,-22.591807 6.606,-34.358995 0,-15.463983 -12.53603,-27.999988 -28,-27.999988 -15.46397,0 -28,12.536005 -28,27.999988 v 11.999998 h -32 z"
       />
    <path
       d="m 400.40747,372.22879 v -22.615 c 1.493,0.146 3,0.229 4.52,0.229 15.663,0 28.978,-7.806 34.75,-20.371 1.53027,-3.3315 0.60019,-7.27681 -2.257,-9.574 l -42.654,-34.291 c -7.48367,-15.35735 -21.54473,-26.47836 -38.213,-30.223 l -32.654,-7.26 -68.918,-53.6 -22.523,-54.06 c -15.29948,-34.11391 -1.1698,-44.85771 -16.051,-44.921 -14.8812,-0.0633 -136.000008,0 -136.000008,0 -4.418278,0 -8,3.58172 -8,8 v 8 c 0.01984,17.66489 14.335112,31.98016 31.999998,32 v 8 c -1.4e-4,1.24212 0.28918,2.46718 0.845,3.578 l 24,48 c 1.35515,2.71002 4.12504,4.4219 7.155,4.422 h 24.00001 v 40 c -11.42548,0.009 -21.98013,6.10648 -27.69501,16 H 96.407462 c -4.418278,0 -8,3.58172 -8,8 v 24 c -7.7e-5,2.12176 0.842727,4.15665 2.343,5.657 l 5.657,5.657 v 24.871 l -8.909,-3.563 c -9.135791,-3.6204 -15.123349,-12.46505 -15.091,-22.292 v -50.33 c 0.01047,-8.83222 7.167784,-15.98953 16,-16 h 55.999998 v -16 H 88.407462 c -17.664888,0.0198 -31.98016,14.33511 -32,32 v 50.33 c -0.05365,16.3761 9.924567,31.11508 25.149,37.148 l 19.879998,7.95 c 5.25495,2.10188 10.9711,-1.76828 10.971,-7.428 v -40 c 8e-5,-2.12176 -0.84273,-4.15665 -2.343,-5.657 l -5.657,-5.657 v -12.686 h 24 v 50.335 c -0.0531,16.3726 9.92355,31.10806 25.145,37.139 l 19.88401,7.954 c 5.25495,2.10188 10.9711,-1.76828 10.971,-7.428 v -40 c 8e-5,-2.12176 -0.84273,-4.15665 -2.343,-5.657 l -5.657,-5.656 v -12.687 h 14.379 l 11.921,17.87 c 5.65132,8.49495 14.34275,14.50169 24.287,16.785 l 85.7,19.775 c 1.61531,18.27258 10.08726,35.25649 23.713,47.538 v 15.738 l -36.434,58.294 h -25.7 c 1.7261,-3.46542 4.53458,-6.2739 8,-8 l 1.691,-0.84 c 1.55558,-0.7734 2.81713,-2.03215 3.594,-3.586 l 24,-48 c 1.5398,-3.08032 0.93557,-6.80038 -1.5,-9.235 -12.67321,-12.66692 -20.31367,-29.50614 -21.5,-47.385 l -15.965,1.06 c 1.31092,19.75064 9.1036,38.51651 22.169,53.386 l -20.321,40.642 c -11.1255,5.84386 -18.07669,17.39115 -18.034,29.958 0,4.41828 3.58172,8 8,8 h 40 c 2.75832,10e-6 5.32209,-1.42095 6.784,-3.76 l 40,-64 c 0.79495,-1.27132 1.21633,-2.7406 1.216,-4.24 v -7.063 c 0.068,0.035 0.134,0.074 0.2,0.108 l 20.5,10.247 -18.36,30.592 c -11.29413,5.7869 -18.38191,17.4257 -18.34,30.116 0,4.41828 3.58172,8 8,8 h 40 c 2.67461,-5e-5 5.17226,-1.33668 6.656,-3.562 l 48,-72 c 2.1155,-3.1732 1.69695,-7.39852 -1,-10.095 z m 4.52,-38.386 c -1.51369,-0.006 -3.02472,-0.12753 -4.52,-0.363 v -22.809 l 21.24,17.072 c -4.501,4.414 -11.14,6.1 -16.72,6.1 z m -316.520008,-222.3 h 15.999998 v 16 c -8.832214,-0.0105 -15.989528,-7.16778 -15.999998,-16 z m 291.719008,368 h -25.85 c 1.7261,-3.46542 4.53458,-6.2739 8,-8 l 1.69,-0.84 c 1.36854,-0.67997 2.51369,-1.73767 3.3,-3.048 l 24,-40 c 2.39734,-3.99584 0.88577,-9.18685 -3.282,-11.271 l -28.22,-14.11 c -8.90702,-5.42811 -16.67817,-12.53027 -22.884,-20.914 -6.199,-8.517 -8.473,-19.27 -8.473,-29.817 v -40 h -16 v 29.944 l -81.816,-18.878 c -5.96844,-1.37101 -11.1851,-4.97594 -14.578,-10.074 l -6,-8.992 h 30.394 c 2.51806,0 4.88916,-1.18555 6.4,-3.2 l 24,-32 -12.8,-9.6 -21.6,28.8 h -68 c -4.41828,0 -8,3.58172 -8,8 v 24 c -8e-5,2.12176 0.84273,4.15665 2.343,5.657 l 5.657,5.656 v 24.871 l -8.913,-3.565 c -9.13297,-3.61878 -15.11896,-12.46028 -15.08701,-22.284 v -50.335 c 0.0105,-8.83222 7.16778,-15.98953 16.00001,-16 h 56 v -16 h -40 v -96 h -16 v 40 h -19.05601 l -20.944,-41.889 v -38.111 h 88.00001 c -0.0105,8.83222 -7.16778,15.98953 -16,16 h -16 v 16 h 16 c 7.62572,0.004 14.99974,-2.72837 20.782,-7.7 0.045,0.1 0.1,0.206 0.143,0.313 l 27.69,66.46 c 0.53134,1.27452 1.38325,2.38996 2.473,3.238 l 72,56 c 0.93502,0.72696 2.01979,1.23724 3.176,1.494 l 34.41,7.65 c 12.42314,2.78813 22.7888,11.30096 27.939,22.945 2.24402,5.07026 3.39793,10.55536 3.387,16.1 v 65.5 c -8e-5,2.12176 0.84273,4.15665 2.343,5.657 l 35.363,35.363 z"
    />
  </g>
</svg>
