<?xml version="1.0" ?>
<svg viewBox="0 0 512 512" 
    xmlns="http://www.w3.org/2000/svg">
    <title/>
    <desc/>
    <g id="Outline">
        <path d="M429.839,273.146l-8.253,13.708A104.008,104.008,0,1,1,302.354,456.672,104.2,104.2,0,0,1,267.111,350.64c6.826-27.244,22.208-47.759,49.878-66.518,30.689-20.806,54.846-39.407,63.424-73.192a86.558,86.558,0,0,0,2.069-32.564c-.009-.071-.133-1.017-.334-2.366h23.4c5.228,24.956,8.716,53.069.55,78.454-7.284,22.642-25.339,42.423-43.765,60.427-3.168,3.1-6.631,6.129-10.3,9.34-15.79,13.832-33.686,29.509-31.918,55.165a48.1,48.1,0,0,0,44.5,44.5A47.591,47.591,0,0,0,400.746,411.1,48.171,48.171,0,0,0,416,376H400a32,32,0,0,1-34.287,31.921,32.037,32.037,0,0,1-29.634-29.635c-1.223-17.745,12.242-29.541,26.5-42.03,3.665-3.211,7.456-6.531,10.935-9.931,19.9-19.443,39.465-41.013,47.815-66.971,8.91-27.7,5.822-57.129.548-83.363,40.9-.2,74.124-36,74.124-79.991a8,8,0,0,0-8-8H458.461c-29.007,0-54.175,17.924-66.461,43.994C379.714,105.924,354.546,88,325.539,88H296a8,8,0,0,0-8,8,84.033,84.033,0,0,0,10.188,40.318A7.972,7.972,0,0,0,296,136h-9.98a25.172,25.172,0,0,1-23.883-33.125l1.45-4.339A8,8,0,0,0,256,88H153.013A32.056,32.056,0,0,1,184,64h88a40.045,40.045,0,0,0,40-40,8,8,0,0,0-8-8H136A79.983,79.983,0,0,0,60.238,70.249L75.387,75.4a63.974,63.974,0,0,1,40.77-40.253A79.9,79.9,0,0,0,88.4,88H24a8,8,0,0,0-8,8,40.045,40.045,0,0,0,40,40v32a8,8,0,0,0,1.006,3.885l33.142,59.662A32.021,32.021,0,0,0,118.12,248H136v74.75a39.656,39.656,0,0,0,.366,5.25H72a8,8,0,0,0-8,8v64a8,8,0,0,0,8,8H88.3l-7.7,6.418a46.012,46.012,0,0,0-14.7,22.334A52.154,52.154,0,0,1,32,388V320a24.027,24.027,0,0,1,24-24h64V280H56a40.045,40.045,0,0,0-40,40v68a68.188,68.188,0,0,0,48.121,65.031A46.188,46.188,0,0,0,110.137,496H184a64.072,64.072,0,0,0,64-64,8,8,0,0,0-8-8H200a8,8,0,0,0-5.657,2.343L180.687,440h-23.8L192.7,418.512a47.709,47.709,0,0,0,12.58-11A8,8,0,0,0,208,408h24V392H213.668A47.618,47.618,0,0,0,216,377.353V352H200v25.353a32.16,32.16,0,0,1-15.537,27.439L123.884,441.14A8,8,0,0,0,128,456h56a8,8,0,0,0,5.657-2.343L203.313,440h28.02A48.078,48.078,0,0,1,184,480H110.137a30.138,30.138,0,0,1-19.293-53.29l77.917-64.924a8,8,0,0,0,.536-11.8l-10.27-10.27a23.822,23.822,0,0,1-4.869-7.034A24.087,24.087,0,0,1,152,322.75V248.471a46.267,46.267,0,0,1,26.343,13.186A8,8,0,0,0,192,256v-8a48.07,48.07,0,0,0-40-47.321V168H136v64H118.12a16.009,16.009,0,0,1-13.986-8.225L72,165.927V104H182.988A32.057,32.057,0,0,1,152,128h-8v16h8a48.046,48.046,0,0,0,42.929-26.564,113.328,113.328,0,0,1,45.594,44.3c.043.075.087.15.132.224a113.333,113.333,0,0,1,6.658,13.858,130.133,130.133,0,0,0,62.679,68.123l20.92,10.46c-6.88,5.454-14.558,10.817-22.9,16.473-31.168,21.131-48.568,44.531-56.42,75.874a120.033,120.033,0,1,0,178.248-73.606ZM106.862,392.536A7.972,7.972,0,0,0,104,392H80V344h62.115a39.874,39.874,0,0,0,5.6,7.027l4.076,4.075ZM174.8,239.311a62.018,62.018,0,0,0-22.8-6.967V217.012A32.126,32.126,0,0,1,174.8,239.311ZM33.371,104H56v16A24.042,24.042,0,0,1,33.371,104ZM136,88H104.5a63.487,63.487,0,0,1,7.557-23.028l12.367,6.183,7.156-14.31-9.9-4.951a64.517,64.517,0,0,1,10.783-9.088l4.386,8.772,14.31-7.156-4.392-8.785A63.682,63.682,0,0,1,168,32v8h16V32h16v8h16V32h16v8h16V32h16v8h16V32h14.629A24.042,24.042,0,0,1,272,48H184a48.078,48.078,0,0,0-47.333,40Zm322.461,16h21.084c-3.607,31.527-28.246,56-58.006,56H400.455C404.062,128.473,428.7,104,458.461,104Zm-132.922,0c29.76,0,54.4,24.473,58.006,56H362.461c-29.76,0-54.4-24.473-58.006-56Zm36.922,72h3.489c.247,1.466.487,3.057.665,4.429a71.616,71.616,0,0,1-1.71,26.563,72.36,72.36,0,0,1-10.032,22.615,25.234,25.234,0,0,1-12.318-12.795,24.672,24.672,0,0,1,.6-21.231A8,8,0,0,0,336,184h-9.98a25.172,25.172,0,0,1-23.883-33.125s1.676-5.162,1.745-5.579C317.525,163.969,338.7,176,362.461,176Zm-100.292-6.119a129.273,129.273,0,0,0-7.731-16.047c-.04-.07-.081-.14-.123-.209a130.665,130.665,0,0,0-40.06-43.229c-3.385-2.292-6.893-4.426-10.492-6.4H245.4a41.2,41.2,0,0,0,40,48,41.2,41.2,0,0,0,39.651,47.993,40.868,40.868,0,0,0,2.835,23.216,41.291,41.291,0,0,0,16.694,19.019c-.245.253-.5.5-.749.753l-26.686-13.342A114.154,114.154,0,0,1,262.169,169.881Z"/>
        <path class="highlighting" d="M96,164a12,12,0,1,0,12-12A12.013,12.013,0,0,0,96,164Z"/>
        <rect class="highlighting" height="16" width="16" x="192" y="152"/>
        <rect class="highlighting" height="16" width="16" x="216" y="176"/>
        <rect class="highlighting" height="16" width="16" x="248" y="232"/>
        <rect class="highlighting" height="16" width="16" x="272" y="256"/>
        <rect class="highlighting" height="16" width="16" x="424" y="336"/>
        <rect class="highlighting" height="16" width="16" x="440" y="368"/>
        <rect class="highlighting" height="16" width="16" x="280" y="352"/>
        <rect class="highlighting" height="16" width="16" x="296" y="416"/>
        <rect class="highlighting" height="16" width="16" x="320" y="440"/>
        <rect class="highlighting" height="16" width="16" x="384" y="232"/>
        <rect class="highlighting" height="16" width="16" x="248" y="280"/>
    </g>
</svg>