<?xml version="1.0" ?>
<svg viewBox="0 0 512 512" 
    xmlns="http://www.w3.org/2000/svg">
    <title/>
    <desc/>
    <g id="Outline">
        <path  d="M456.524,55.15A70.469,70.469,0,0,0,393.17,16h-.25a70.857,70.857,0,0,0-58.237,30.517L325.73,59.446l13.155,9.108,8.951-12.929A54.86,54.86,0,0,1,392.92,32h.25a54.552,54.552,0,0,1,49.043,30.306A55.159,55.159,0,0,1,448,86.83V335.618a81.925,81.925,0,0,1-16-3.179V280H416v45.628a82.422,82.422,0,0,1-16-11.665V264H384v34.46l-8.216-20.539-.964-6.769c-.016-.114-.035-.228-.056-.342l-6.793-47.581-3.522-68.9a8.181,8.181,0,0,0-.1-.911A39.894,39.894,0,0,0,324.89,120H320V63.27A47.323,47.323,0,0,0,272.731,16c-13.591,0-27.822.218-38.193,10.548A35.784,35.784,0,0,0,224.592,45.5,70.854,70.854,0,0,0,167.08,16h-.25V32h.25a54.856,54.856,0,0,1,45.082,23.624l6.434,9.295-1.751,3.5a8,8,0,0,0,1.5,9.235L224,83.313V96a8,8,0,0,0,8,8h16v16H213.98a40.272,40.272,0,0,0-31.9,15.9l-2.46-9.841a7.964,7.964,0,0,0-3.414-4.772,40.424,40.424,0,0,0,3.84-41.2,7.951,7.951,0,0,0-7.264-4.539,40.13,40.13,0,0,0-3.364-22.37,8,8,0,0,0-10.717-3.843l-2.539,1.218a40.1,40.1,0,0,0-8.2-25.818,8,8,0,0,0-11.316-1.419l-4.96,3.92a39.5,39.5,0,0,0-9.443,10.777A39.447,39.447,0,0,0,91.542,16.736l-6.223-.687a8.037,8.037,0,0,0-8.826,7.031l-.014.126A40.1,40.1,0,0,0,88.515,56.359a39.587,39.587,0,0,0-6.989,3.123L76.045,62.6a8,8,0,0,0-3.054,10.81A39.321,39.321,0,0,0,89.854,89.72l-3.395,2.508a8,8,0,0,0-1.754,11.087,39.2,39.2,0,0,0,17.326,13.67l3.152,5.562L97.305,127.7a39.282,39.282,0,0,0,28.388,17.529l18.215,83.258a28.34,28.34,0,0,0,42.388,18.2c1.064,3.922,2.107,7.89,3.131,11.878l-7.839,22.391A82.363,82.363,0,0,1,176,293.5V264H160v49.963a82.422,82.422,0,0,1-16,11.665V280H128v52.439a81.925,81.925,0,0,1-16,3.179V152H96V344a8,8,0,0,0,8,8,98.174,98.174,0,0,0,92.291-64.673c1.349,6.083,2.65,12.172,3.864,18.241l15.69-3.136c-2.877-14.386-6.153-28.876-9.727-43.126l14.658-41.868c.225-.638,6.192-13.956,10.054-19.332.291.209,4.373,3.239,4.373,3.239A550.4,550.4,0,0,0,232,264.98V451.056l-22.113,11.056a17.889,17.889,0,0,0,8,33.888H360a8,8,0,0,0,6.4-12.8A112.687,112.687,0,0,1,344,416V352H328v64a128.9,128.9,0,0,0,17.166,64H248V264.98a533.324,533.324,0,0,1,3.616-66.383c.967-8.282-11.076-11.782-15.366-17.2A19.713,19.713,0,0,1,232,169.21c0-.265.006-.536.023-.87a19.593,19.593,0,0,1,3.908-10.91l13.928-18.576L272,153.612V176a8,8,0,0,0,8,8,39.79,39.79,0,0,0,24.711-8.581l5.449,3.635-13.588,33.975a8,8,0,0,0,2.43,9.217c19.783,15.832,29,40.291,29,76.974V336h16v-8h40a8,8,0,0,0,5.369-2.072A97.5,97.5,0,0,0,456,352a8,8,0,0,0,8-8V86.83A71.249,71.249,0,0,0,456.524,55.15ZM256,88H240V80a8,8,0,0,0-2.343-5.657l-3.923-3.923,5.421-10.842c1.15-2.3.845-5.085.845-7.578a19.889,19.889,0,0,1,5.847-14.133,20.54,20.54,0,0,1,2.312-1.956L272,59.354V120h-8V96A8,8,0,0,0,256,88Zm-37.3,94.779q.627,1.523,1.393,2.984a92.378,92.378,0,0,0-6.082,8.74Zm-61.089-65.395a24.165,24.165,0,0,1,10.272-22.216A24.17,24.17,0,0,1,157.615,117.384ZM92.1,72.088a22.766,22.766,0,0,1,14.942-.85,23.177,23.177,0,0,1,9.072,4.943,22.775,22.775,0,0,1-14.943.85A23.179,23.179,0,0,1,92.1,72.088Zm26.232,25a23.039,23.039,0,0,1,9.515,3.8,22.784,22.784,0,0,1-14.812,2.652,23.025,23.025,0,0,1-9.515-3.8A22.8,22.8,0,0,1,118.336,97.087Zm28.236-6.869a24.152,24.152,0,0,1,10.519-22.1A24.157,24.157,0,0,1,146.572,90.218Zm-7.417-48.187a24.34,24.34,0,0,1-5.569,23.857A24.341,24.341,0,0,1,139.155,42.031Zm-29.133,8.64A23.754,23.754,0,0,1,92.918,33.2,23.74,23.74,0,0,1,110.022,50.671Zm19.732,72.208a23.185,23.185,0,0,1,7.717,3.841l-7.177,1.435a8,8,0,0,0-2.843,1.176,23.342,23.342,0,0,1-12.608-5.608A22.742,22.742,0,0,1,129.754,122.879Zm43.9,111.74a12.363,12.363,0,0,1-14.111-9.554l-17.794-81.328a38.78,38.78,0,0,0,6.981-2.951l17.226-3.445,4.594,18.374-10.261,5.13a8,8,0,0,0-3.36,11.137l25.417,44.286a12.364,12.364,0,0,1-8.692,18.351ZM216,478.111a1.88,1.88,0,0,1,1.043-1.689L232,468.944V480H217.889A1.892,1.892,0,0,1,216,478.111Zm7.128-330.277a35.429,35.429,0,0,0-5.295,10.1c-.228.683-.426,1.374-.612,2.068H216a8,8,0,0,0-7.428,5.029L193.3,203.214l-7.6-13.246c-1.4-4.1-2.828-8.173-4.266-12.193l10.148-26.4A24.137,24.137,0,0,1,213.98,136H232ZM288,166.629V56a8,8,0,0,0-2.391-5.7L267,32h5.728A31.3,31.3,0,0,1,304,63.27V144A24.042,24.042,0,0,1,288,166.629Zm25.554,47.025,3.255-8.139,2.285,13.707Q316.468,216.325,313.554,213.654ZM350.559,312l-6.67-33.351c-4.562-31.933-8.956-63.9-14.1-95.746-.718-4.421-1.213-10.709-5.271-13.5-.026-.019-.051-.039-.078-.057l-9.319-6.215A39.75,39.75,0,0,0,320,144v-8h4.89A23.937,23.937,0,0,1,348.5,155.64s3.551,69.251,3.585,69.491c0,0,8.255,57.248,8.492,57.84L372.184,312Z"/>
        <path class="highlighting" d="M352,72v8a24.039,24.039,0,0,0,16,22.624V104a24,24,0,0,0,48,0v-1.376A24.039,24.039,0,0,0,432,80V72H416v8a8,8,0,0,1-16,0V72H384v8a8,8,0,0,1-16,0V72Zm40,25.869a24.015,24.015,0,0,0,8,4.755V104a8,8,0,0,1-16,0v-1.376A24.015,24.015,0,0,0,392,97.869Z"/>
        <path class="highlighting" d="M424,232a24.085,24.085,0,0,0,20.784-11.994l-13.849-8.012A8,8,0,0,1,416,208v-1.376A24.039,24.039,0,0,0,432,184H416a8,8,0,0,1-16,0H384a24.039,24.039,0,0,0,16,22.624V208A24.028,24.028,0,0,0,424,232Z"/>
        <path class="highlighting" d="M287.029,260.467l-14.355,7.066a504.618,504.618,0,0,0,32.67,56.9l13.312-8.876A488.585,488.585,0,0,1,287.029,260.467Z"/>
        <path class="highlighting" d="M279.305,244.016c-5.131-11.493-7.762-18.681-7.787-18.752l-15.037,5.47c.114.311,2.827,7.74,8.214,19.8Z"/>
        <path class="highlighting" d="M286.8,348.693l-14.568,6.614a274.608,274.608,0,0,0,33.469,55.62l12.606-9.854A258.57,258.57,0,0,1,286.8,348.693Z"/>
        <path class="highlighting" d="M265.355,338.858l14.944-5.716c-7.74-20.235-10.4-34.443-10.43-34.584L262,300l-7.87,1.436C254.245,302.065,257.041,317.124,265.355,338.858Z"/>
        <path class="highlighting" d="M309.657,458.343c-26.168-26.167-36.9-60.347-37.009-60.689l-15.3,4.684c.472,1.548,11.917,38.242,40.993,67.319Z"/>
    </g>
</svg>